<svg version="1" xmlns="http://www.w3.org/2000/svg" width="1600" height="1600" viewBox="0 0 1200.000000 1200.000000"><path d="M100 23.8v23.8h113c112.8 0 113 0 113.1-2.1.1-2.7.1-42.7 0-44.3C326 .3 302.7 0 213 0H100v23.8zM355.9 1.2c-.4 9.2.1 45.1.6 45.6.4.4 103.1.7 228.3.7 125.2 0 228.2.4 228.9.8.7.4 1.4-.1 1.8-1.4.6-1.7.9-31 .6-44.7L816 0H586C402.7 0 356 .3 355.9 1.2zM845.9.2c0 .2-.1 10.3-.2 22.6-.2 22.7.3 27.2 2.6 25.5 1.2-.9 245.5-1.1 248.7-.2 1.3.3 1.5-2.9 1.8-23.9L1099 0H972.5C902.9 0 846 .1 845.9.2zM408.5 88.8c-2.2.1-7.1.8-11 1.4-3.8.6-7.3 1.1-7.7 1-.5-.1-.8.2-.8.7 0 .6-.8 1-1.7 1-3.3-.1-8.7 1.8-15.3 5.1-7 3.5-18.3 10.8-18.8 12.2-.2.4-.8.8-1.3.8-2.4 0-20.8 21.2-20.2 23.2.2.4-.2.8-.7.8-.6 0-1 .7-1 1.5 0 .9-.6 1.8-1.4 2.1-.8.3-1.3 1.4-1.1 2.5.2 1 .1 1.9-.3 1.9-.6 0-2.7 4.1-3.7 7.2-.1.5-.4 1-.5 1.3-.4.8-.7 1.7-1.5 5.3-.4 1.8-1.1 3.5-1.5 3.7-.5.3-.6 1.4-.3 2.5s.2 2.8-.2 3.7c-.5 1-.9 3.6-.9 5.8-.1 2.2-.4 4.4-.8 5-.9 1.5.3 26.2 1.5 29.5.8 2.1 2.1 9.3 1.9 10.3-.1.4.7 2.5 1.8 4.7 1.1 2.1 2 4.6 2 5.4 0 .8.7 2.1 1.5 3 .9.8 1.5 1.7 1.4 1.8-.1.2.6 2.1 1.5 4.3 1 2.2 1.6 4.1 1.4 4.2-.2.2.7 1 2 1.8 1.2.9 2.2 2.2 2.2 2.9 0 .8.7 1.6 1.5 2 .8.3 1.5 1.1 1.5 1.9 0 .7 3.5 4.6 7.8 8.5 10 9.4 10.9 10.1 11.6 9.4.3-.3.6-.1.6.5 0 1 4.9 3.8 6.3 3.5.4-.1.7.3.7.9 0 .5 1.4 1.5 3 2 1.7.6 3 1.5 3 2.1 0 .5.4.7.9.3.5-.3 1.2-.1 1.6.5.3.5 1.2 1 2 1s2.6.5 4.2 1.2c2.8 1.1 4.2 1.5 6.6 2.1.6.1 1.7.5 2.2.9 1 .6 8.5 2.1 12 2.3 1.1.1 2.2.3 2.5.5 1.3.6 30 .5 30-.2 0-.4 2.3-.6 5-.5 2.8.1 5-.1 5-.4 0-.4 1.2-.9 2.8-1.2 3.4-.7 6.6-1.5 7-1.7.1-.2.5-.3 1-.5.4-.1 1.6-.5 2.7-.9 6.3-2.4 7.5-2.8 7.9-2.5.2.2 1.2-.3 2.2-1.2 1.1-.9 2.9-2 4.2-2.3 1.2-.4 2.2-1.2 2.2-1.7 0-.6.4-.8.9-.5.5.4 1.1.3 1.3-.1.1-.5 2.1-2 4.3-3.5 2.2-1.5 5.2-3.8 6.8-5 1.5-1.3 4.1-3.4 5.7-4.8 1.7-1.3 3-3 3-3.6 0-.7.8-1.9 1.8-2.6 2.3-1.8 7.4-8.5 9.6-12.8 5.4-10.3 7.6-15.2 7.6-16.5 0-.8.4-1.5.9-1.5.4 0 .6-1.1.3-2.5-.2-1.4 0-2.5.6-2.5s.9-.8.7-1.8c-.1-.9.2-2.3.8-3 1.5-1.9 2.1-35.5.7-42.7-.6-3.3-1.1-7.2-1.2-8.8 0-1.5-.4-2.7-.8-2.7s-1.1-1.7-1.5-3.7c-.4-2.1-1.2-4.7-1.8-5.8-.6-1.1-1.2-2.2-1.2-2.5-.2-.7-3.3-6.9-5.5-10.8-7.3-13.1-27.3-31.3-38.9-35.3-1.7-.6-3.1-1.5-3.1-2s-.3-.8-.7-.7c-.5 0-1.5-.1-2.3-.5-13.5-5.2-35.1-8.1-52.5-6.9zm16 43c.5.4 2.1.7 3.5.7s3.1.4 3.8.9c.7.4 1.6.6 1.9.2.7-.7 13.2 5.7 16.3 8.4 1.4 1.2 3 2.5 3.5 2.8 3.6 2.4 13.2 18.1 12.6 20.9-.1.7.2 1.3.7 1.3.5 0 .9.6 1 1.2.1.7.7 4.7 1.3 8.8 1.4 9.5 1.4 9.7 0 20.4-.6 5.1-1.6 9.3-2.3 9.8-.7.4-1 .8-.6.8 1 0-2.7 8.4-5.4 12.1-5.6 7.7-17.5 17.9-20.9 17.9-.8 0-1.9.4-2.5.9-1.6 1.7-6.6 2.4-18.9 2.7-7.1.1-12.5-.2-13.2-.8-.7-.6-1.3-.7-1.3-.3 0 .4-.7.2-1.5-.5-.9-.7-1.8-1-2.2-.7-.3.4-1.9-.3-3.4-1.4-1.6-1.1-2.9-1.8-2.9-1.4 0 .3-.6.1-1.2-.4-.7-.6-3.7-3-6.7-5.3-3-2.4-5.9-5.2-6.5-6.3-.6-1.1-1.8-2.5-2.6-3.2-.8-.7-1-1.3-.5-1.3.6 0 .6-.3 0-.8-1.5-1-5.5-8-5.5-9.5 0-.7-.6-2.3-1.3-3.7-.7-1.4-1.2-3.7-1-5.3.1-1.5-.2-2.7-.6-2.7-.9 0-.7-19.9.3-22.1.4-.9.6-2 .5-2.5-.2-.5.4-2.9 1.1-5.4.8-2.5 1.4-4.7 1.5-5 .7-2.5 4.4-8.8 5.8-9.8.9-.7 1.7-1.9 1.7-2.5 0-1.3 8.4-9.7 9.7-9.7.4 0 2.5-1.4 4.7-3s5.7-3.2 8.2-3.6c2.4-.3 4.4-1 4.4-1.5s1.8-.7 4-.5c2.2.2 4 0 4-.4 0-1 9-1.1 10.5-.2zM116.9 91.9c-.4 3.5 0 188.1.4 188.8.4.7 9.3 1 24.4.9l23.8-.1v-54.3l4.3-5c2.3-2.8 4.2-5.3 4.2-5.6 0-.3 1-1.6 2.1-2.7l2.2-2.2 3.3 3.9c1.8 2.2 3.9 5 4.6 6.4.7 1.3 2 3.2 2.8 4.1 3.1 3.6 4 4.9 5.2 7.4.6 1.4 1.5 2.5 2 2.5s.6.4.3 1c-.3.5-.1 1 .5 1s1.5 1.1 2 2.5 1.4 2.5 2 2.5c.5 0 1 .5 1 1.1 0 .6 1.3 2.8 2.8 4.8 1.6 2 3.2 4.4 3.5 5.3.4 1 1.1 1.8 1.8 1.8.6 0 .9.6.6 1.4-.3.8.5 1.9 1.8 2.6 1.4.7 2.2 1.6 2 2-.3.4.2 1.3 1 2s1.5 1.8 1.5 2.6c0 .7.9 1.8 2 2.4 1.1.6 2 1.7 2 2.5s.7 1.8 1.6 2.3c.9.5 1.5 1.1 1.4 1.3-.2.2.6 1.8 1.6 3.5l1.9 3.1h30.1c31.3 0 31.9-.1 28.4-4-1.8-1.9-2.2-2.5-8-10.2-2.5-3.3-5.1-6.4-5.7-6.8-.7-.4-1.3-1.4-1.3-2.2 0-.8-.9-2-2-2.7-1.1-.7-2-1.7-2-2.1 0-.5-1.2-2.3-2.6-4.1-1.4-1.7-3.5-4.4-4.7-5.9-1.2-1.5-3.2-3.9-4.4-5.2-1.3-1.3-2.3-2.8-2.3-3.2 0-.5-.8-1.6-1.7-2.5-1-.8-3.4-3.8-5.3-6.6s-3.8-5.1-4.2-5.2c-.5 0-.8-.6-.8-1.3 0-.6-1.8-3.2-4-5.7-2.2-2.4-4-4.8-4-5.2 0-.4-1.2-2-2.6-3.5-5-5.4-5.4-6-5.4-6.7 0-.4-2.9-4.3-6.5-8.7-3.6-4.4-6.5-8.6-6.5-9.4 0-.8 1.1-2.5 2.5-3.7 1.4-1.2 2.5-2.6 2.5-3.1 0-.6 1.7-2.6 3.9-4.6 2.1-2 4-4.1 4.2-4.8.2-.6 2.9-4 6-7.5s5.7-6.8 5.9-7.3c.2-.6 1.6-2.1 3.2-3.5 1.5-1.3 2.8-2.9 2.8-3.4 0-.6 1.1-2.2 2.5-3.6 3.3-3.2 8.5-9.6 8.5-10.3 0-.3 1.7-2.3 3.8-4.5 2-2.2 5.3-5.9 7.2-8.2 1.9-2.3 4.7-5.6 6.2-7.4 1.5-1.7 4.3-5.1 6.3-7.6 1.9-2.5 4.2-5.3 5.2-6.2.9-1 1.3-2.1.9-2.5-.4-.5-14.1-.8-30.3-.9l-29.6-.1-3.1 4.5c-1.7 2.5-3.9 5.4-4.8 6.4-1 1-1.5 1.8-1 1.8.4 0 .2.4-.3.8-.6.4-2.6 2.9-4.5 5.5-1.9 2.7-4.3 5.6-5.2 6.5-1 .9-1.8 2.2-1.8 2.9 0 .7-.9 1.7-2 2.3-1.1.6-2 1.6-2 2.1 0 .6-1 2.3-2.2 3.8-1.3 1.5-3.2 4-4.3 5.6-1.1 1.5-2.8 3.6-3.7 4.7-1 1-1.8 2-1.8 2.3 0 .9-8.4 11.9-9.7 12.8-.7.4-1.3 1.4-1.3 2 0 .7-.8 2-1.7 2.9-2.2 2.1-3.5 3.6-5.7 7.1-1 1.5-2.1 2.5-2.5 2.3-.3-.2-.6-17.5-.6-38.3v-38h-24.2c-13.4 0-24.3.3-24.4.6zM559 113.2V135h52.7l.1 71.7c0 39.5.1 72.5.1 73.4.1 1.4 3 1.5 24.9 1.5l24.7-.1.2-72c.2-39.6.3-72.6.3-73.3 0-.9 5.9-1.2 26.3-1.2h26.3v-21.8l-.1-21.9H559v21.9zM758.5 93.4c-.2 1.2-.3 43.9-.2 95.1l.2 93 24.3.1 24.2.1V91.3h-24c-23.6 0-24 .1-24.5 2.1zM866.4 186.4l.1 95.1 24.2.1H915l.2-61c.3-59.7.3-61 2.1-57.1 1 2.2 2.2 4.9 2.8 6 .6 1.2 1.1 2.7 1.3 3.5.1.8 1.1 3.3 2.1 5.5s1.9 4.4 2 5c0 .5.6 2.3 1.3 3.8.7 1.6 1.2 3.3 1.2 3.8s.5.9 1.1.9c.5 0 .8.4.5.9-.3.5.1 2.2.9 3.7.8 1.6 1.8 4.4 2.1 6.1.3 1.8.9 3.3 1.3 3.3s.8.6.9 1.2c.2 2.4 3.6 11.3 4.5 11.9.5.4.6 1.2.3 1.8-.4.6-.3 1.1.3 1.1.5 0 1.3 1.5 1.6 3.2.4 1.8 1.2 3.9 1.7 4.5.6.7.8 1.3.4 1.3s0 1 .8 2.2c.8 1.3 1.8 4 2.1 6 .4 2.1 1.1 3.8 1.6 3.8s.8.3.7.7c-.1.5.4 2.1 1 3.6.7 1.6 1.2 3.3 1.2 3.8s.5.9 1.1.9c.5 0 .8.4.5.9-.4.5.4 3.1 1.6 5.8 1.2 2.6 2 5.2 1.9 5.7-.1.4.3 1.4 1 2.2.6.7.8 1.8.4 2.4-.3.5-.2 1 .2 1 1 0 3.6 6 3.4 7.7-.1.7.3 1.3.9 1.3.5 0 1 .6 1 1.3 0 1 2.7 1.3 11.4 1.3l11.4.1 1.3-4.1c.7-2.3 1.3-4.3 1.4-4.6.1-.3.7-1.7 1.3-3.3 2.9-6.7 3.5-8.3 3.8-9.2.1-.6.8-2.4 1.5-4 .7-1.7 1.1-3.4 1-3.9-.1-.4.6-1.9 1.4-3.3.9-1.4 1.4-2.7 1.1-3-.3-.3.1-1.5.9-2.7.8-1.1 1.5-2.8 1.5-3.8s.5-1.8 1-1.8c.6 0 .9-.3.8-.8-.1-.7 0-1.3 2.1-7.2.7-1.9 1.3-4.1 1.4-4.8 0-.6.5-1.2 1-1.2s.7-.7.3-1.5c-.3-.8-.1-1.5.4-1.5.6 0 1-.6 1-1.3.1-.6.9-3 2-5.2s1.9-4.7 2-5.5c0-.9.7-2.5 1.5-3.6.8-1.2 1.2-2.4.8-2.7-.3-.4-.1-1.2.4-1.9.6-.7 1.6-3.1 2.3-5.3.7-2.2 1.6-4.5 2.1-5.1.5-.6.6-1.4.2-1.7-.3-.4-.2-.7.4-.7.6 0 1.4-1.6 1.7-3.5.4-1.9 1.1-3.5 1.6-3.5.6 0 .9-.3.8-.8-.3-1.4 2.3-9.2 3.1-9.2.5 0 .7-.9.4-2-.3-1.2 0-2 .7-2s1-.6.7-1.3c-.3-.7.1-2.1.9-3.2.8-1 1.4-1.5 1.5-.9v60.1c.1 44.5.4 59.3 1.2 59.5.7.1 11.9.2 25 .3l23.7.1.1-3.5c0-2 .1-44.3.2-94.1.1-60-.1-90.9-.8-91.6-.7-.7-11.6-1.1-33.9-1.1h-32.8l-1.9 3c-1 1.7-1.6 3.4-1.3 3.9.3.4 0 .8-.5.8-.6 0-1.1.4-1.1.9s-.5 2.2-1.2 3.8c-.6 1.5-1.2 3.2-1.3 3.8-.1.5-.3 1.2-.4 1.5-.2.3-.4 1.2-.6 2-.2.8-1.3 3.7-2.6 6.5-2.5 5.7-2.3 5.1-3.4 9-.4 1.6-1.3 3.9-1.9 5-.6 1.1-1.1 2.4-1.2 3 0 .5-.8 2.8-1.8 5s-1.9 4.7-2.1 5.5c-.2.8-.4 1.6-.5 1.7-.2.2-.3.6-.5 1-.1.5-.7 2.1-1.3 3.6-.7 1.6-1.2 3.5-1.2 4.3 0 .8-.4 1.4-1 1.4-.5 0-.9.3-.8.7.3 1-2.1 8-3.7 11.3-2.6 5.1-5.5 13.2-4.9 14.1.3.5 0 .9-.5.9-.6 0-1.1.8-1.1 1.8s-.6 2.6-1.4 3.7c-.7 1.1-1.4 2.4-1.4 3-.1 2.8-2.1.9-3.9-3.7-3.8-9.8-4.5-11.7-4.3-12.4.1-.4-.2-1-.7-1.3-.5-.3-1.8-3.6-3.1-7.2-1.2-3.6-2.9-8.4-3.9-10.5-.9-2.2-1.7-4.4-1.7-4.9-.1-.6-.6-1.9-1.2-3s-1.7-4.1-2.4-6.8c-.7-2.6-1.7-4.7-2.1-4.7-.5 0-.9-.6-.9-1.4 0-.8-.5-2.7-1.2-4.3-.6-1.5-1.2-3-1.2-3.3-.1-.3-.5-1.1-.9-1.8-.5-.6-.6-1.6-.3-2 .3-.5-.3-1.8-1.2-2.8-1-1-1.6-2.7-1.4-3.7.2-.9-.1-1.7-.7-1.7s-1-.3-.9-.8c.1-.4-.4-2-1-3.5-.7-1.6-1.2-3.4-1.2-4.2 0-.8-.5-1.7-1-2-.6-.4-.8-1.1-.5-1.6.4-.5.1-.9-.5-.9s-1-.6-.9-1.3c.1-.6-.3-2.5-.9-4-.7-1.6-1.2-3.3-1.2-3.8s-.5-.9-1.1-.9c-.6 0-.9-.6-.6-1.3.4-1.1-5.5-1.4-33.7-1.4l-34.3.1.1 95zM460 317c0 .4-2.5 1-5.6 1.4-3.1.3-6.6 1.2-7.8 1.8-1.1.7-2.4 1.2-2.8 1.3-.4 0-1.3.6-1.9 1.2-.7.7-1.9 1.3-2.6 1.3-.7 0-1.3.5-1.3 1.2 0 .6-.3.8-.7.5-.3-.4-1.8.6-3.2 2.1-1.5 1.5-3 2.8-3.4 2.9-1.3.4-6.7 7-6.7 8.2 0 .6-.5 1.1-1.1 1.1-.5 0-.7.5-.4 1 .3.6-.1 1.3-.9 1.6-.9.3-1.8 2.1-2.2 4-.3 1.9-1 3.7-1.6 4-.5.3-.6 1.4-.3 2.5.4 1 .2 1.9-.3 1.9-1 0-.9 22.9.1 26.5 1 3.5 3.2 9 3.8 9.5.3.3 1.3 1.9 2.2 3.6 2 4 9.5 11.5 14.4 14.5 2.1 1.2 4 2.6 4.3 2.9.4.5 8.1 3.2 10 3.6.3 0 1.4.5 2.5 1 2.8 1.3 26.4 1.2 27.3-.1.4-.6 1.4-1.1 2.2-1.1 2.3-.1 10-3.5 9.6-4.3-.3-.4.9-1.3 2.6-2 2.9-1.3 7.5-5.1 6.2-5.1-.3 0 1.5-2.4 4.1-5.4 4.2-4.9 4.4-5.5 3-7-.9-.9-2.3-1.6-3.1-1.6-.8 0-1.4-.5-1.4-1 0-.6-.6-1-1.2-1-.7 0-4-1.4-7.2-3-6.1-3.1-8.6-3.7-8.6-2 0 1.5-8.2 10-9.2 9.4-.4-.3-.8 0-.8.6s-.4.9-.9.5c-.5-.3-1.2-.1-1.6.5-1.2 2-13.7 1.1-18.7-1.3-6.7-3.3-15-13-13.3-15.7.3-.6.1-1-.5-1-.8 0-1-2.9-.7-9.8.3-5.3.6-10.3.8-11.1.4-2.6 12.6-14.1 14.8-14.1 1.1 0 2.1-.3 2.1-.8 0-1 11.9-.8 14.3.3 1 .4 2 .5 2.3.2.3-.2 2.1 1 4.1 2.7 3.8 3.3 4.2 3.8 7.1 7.3l1.7 2.2 4.7-2.3c2.6-1.3 5-2.1 5.3-1.8.3.3.5.1.5-.5s2-1.6 4.4-2.3c5.3-1.5 7.5-4.9 4.6-7-1-.8-1.8-1.6-1.7-1.9.3-1.1-4.6-7-5.5-6.5-.4.3-.8-.2-.8-1s-.9-1.7-1.9-2.1c-1.1-.3-2.1-1.2-2.4-1.9-1-2.5-9.6-6.2-19.2-8.1-4.9-1-17.5-1.4-17.5-.5zM108.3 319.5c-.3 1.1-.7 22.9-.7 48.4-.1 45.3-.1 46.4 1.9 47.7 1.6 1.2 7.4 1.4 29.8 1.4 15.2-.1 27.7-.5 27.7-.9 0-.5 1.9-.8 4.3-.7 2.3.1 4.8-.4 5.5-1.1.7-.7 2.1-1.3 3.1-1.3 2.2 0 11.1-9.2 11.1-11.5 0-.8.4-1.5.9-1.5s.8-.8.6-1.8c-.1-.9.1-2.2.6-2.7.8-1 .5-10.4-.3-13.5-1.6-5.5-8.1-14-10.7-14-.6 0-1.1-.5-1.1-1.1 0-.5-.4-.8-.9-.4-.5.3-1.2.1-1.6-.5-.3-.6.2-1.4 1.3-1.8 3.5-1.3 9.1-7 9.8-9.9.4-1.5 1-3.3 1.3-3.8.9-1.3.7-12.4-.3-15.3-.4-1.2-1.2-2.2-1.7-2.2s-.8-.3-.7-.8c.5-1.4-3.5-7-5.9-8.3-1.3-.7-2.3-1.6-2.3-2.1s-.5-.6-1.1-.2c-.6.3-1.4.2-1.8-.4-1.4-2.2-13.3-3.3-40.4-3.5-26.9-.2-27.7-.1-28.4 1.8zm55.4 23c1.7 1.2 2.1 2.4 1.9 5.7-.4 6.1-2.2 6.8-18.6 6.8h-13.5l-.1-7v-7h14.1c10.8 0 14.5.3 16.2 1.5zm-.3 36.5c1.4.5 3 1.9 3.6 3.1 1.7 3 .4 9-2.1 9.6-1 .3-1.9.8-1.9 1.2 0 .6-26.6.7-29.1.2-.4-.1-.5-13.9 0-14.9.4-.7 27.4-.1 29.5.8zM219.3 318.5c-1.6 1.7-1.3 95.6.3 97.2 1 1 8.8 1.3 34.3 1.3 30.2 0 33.3-.2 34.9-1.8 1.4-1.4 1.7-3.3 1.5-11.2 0-5.2-.1-9.7-.2-10-.1-.3-10.3-.5-22.8-.5h-22.8l-.2-7.8-.2-7.7H289v-23h-45v-14h23c12.7 0 23-.3 23.1-.8 0-.4.1-5.1.2-10.5.1-6.9-.2-10.2-1.1-10.9-1.7-1.5-68.6-1.7-69.9-.3zM315.3 319.5c-.4 1.4-.7 72.8-.3 94.3 0 1.3.4 2.1.9 1.7.5-.3 1.2-.1 1.5.4.9 1.3 21.5 1.1 22.3-.3.4-.6.8-8.1.8-16.6v-15.5h6.5c4.7 0 6.4.4 6.2 1.2-.1.7.3 1.3.9 1.3.6 0 .8.7.5 1.7-.4 1-.4 1.4 0 1.1.3-.4 2.4 2.8 4.5 7s4.3 8.4 4.9 9.2c1 1.5 2.7 5.7 2.9 7.3.1 1.2 2.6 3.5 3.3 3.1.4-.2.9 0 1.3.6.9 1.4 16.8 1.3 18.3-.2.8-.8 1.8-.9 3.6 0 3.9 1.7 4-1.1.3-7.9-1.7-3.4-4.8-9.2-6.8-13.1-1.9-3.8-4.2-7.4-5-7.9-.8-.5-.9-.9-.4-.9.6 0 .5-.4-.2-.8-1.4-.9-2.9-6.4-1.7-6.1 2.5.7 12.4-6.5 12.4-8.9 0-.5.7-1.5 1.5-2.2.8-.7 1.3-1.6 1-2-.3-.5.1-1 .7-1.2 1-.4 1.3-4 1.3-13.8s-.3-13.4-1.3-13.8c-.6-.2-1-.7-.7-1.2.8-1.3-11.5-14-13.6-14-1 0-1.9-.4-1.9-.8 0-.5-.6-.9-1.2-1-.7-.1-3.8-.6-6.8-1.3-3-.6-16.6-1.1-30.3-1.2-23.8-.2-24.7-.1-25.4 1.8zm52 23.5c2.8 2.3 6.1 8 4.6 8-.6 0-.9 1-.7 2.2.7 5.4-6.8 8.4-20.3 8.2-5.2-.1-9.6-.2-9.9-.3-.3-.1-.5-4.6-.5-10.1v-10h12.1c10.7 0 12.4.2 14.7 2zM564.2 317.8c-1.8.2-3 .8-2.7 1.3.4.5.1.9-.5.9s-1 .6-.9 1.2c.1.7-.1 2-.4 2.8-2.3 5.4-3.1 7.6-3.2 8.5 0 .5-.6 2-1.3 3.2-.7 1.2-1.2 2.9-1.2 3.7 0 .9-.4 1.6-1 1.6-.5 0-.9.3-.8.7 0 .5-.1 1.5-.4 2.3-3.4 9.3-4.3 11.6-4.4 12 0 .3-.4 1.2-.7 2-2.2 5.2-3 7.7-2.8 8.7.1.7-.2 1.3-.6 1.3-.5 0-1.5 2.1-2.2 4.7-.8 2.7-1.8 5.5-2.2 6.3-2.1 4.5-8 20.8-7.7 21.3.1.1-.5 1.5-1.3 3.2-4.9 9.5-5 10.1-2.3 13.3.1.2 1.2-.1 2.3-.8 1.3-.6 2.1-.7 2.1-.1 0 1.1 11.9 1.2 13.5.1 1.5-1 5.4-1 6 .1 1.2 1.8 2.4.8 3.1-2.6.3-1.9 1-3.5 1.4-3.5.5 0 .6-1 .2-2.2-.3-1.4-.2-1.9.6-1.4s1.2-.1 1.2-1.6v-2.3l18.8.1c21.5.2 21.7.2 21 1-.9.8 2.7 10.3 4.6 12.2.9.9 1.6 1.2 1.6.6 0-.7 4.1-1 11.5-1 6.9 0 11.5.4 11.5 1s.8.2 1.8-.7c1.3-1.4 1.4-1.9.4-2.6-.7-.4-1.2-1.2-1.1-1.7.1-.5-.1-1.8-.5-2.9-.4-1.1-1.3-3.4-1.9-5-.7-1.7-1.2-3.2-1.3-3.5 0-.3-.6-1.8-1.2-3.3-.7-1.6-1.2-3.4-1.2-4.1 0-.7-.6-2.1-1.4-3.1-.8-1.1-1.2-2.5-.9-3.2.3-.7 0-1.3-.6-1.3s-1.1-.6-1.1-1.4c0-.8-.5-2.7-1.2-4.3-.6-1.5-1.2-3-1.3-3.3-.1-.3-.5-1.4-1-2.5-4.3-10.9-5.3-14-4.9-14.7.3-.4 0-.8-.5-.8-.6 0-1.1-.9-1.1-1.9 0-1.1-.5-2.3-1-2.6-.6-.4-.8-1.1-.5-1.6.4-.5.2-.9-.3-.9s-1.2-1.2-1.5-2.8c-.3-1.5-1.1-4.1-1.8-5.7-.7-1.7-1.3-3.2-1.4-3.5-.2-.6-2.4-6-3.2-8-.3-.8-.5-2.1-.4-2.8.1-.6-.3-1.2-.9-1.2-.5 0-.9-.3-.8-.8.9-4.1-5.1-10.1-8.2-8.2-.8.5-1.8.6-2.3.3-1-.6-16.5-1-21.5-.5zm15.3 31.3c-.2 1 0 1.9.5 1.9.4 0 1.1 1.8 1.5 4 .4 2.2 1.1 4.2 1.5 4.5.5.3.7 1.4.5 2.5-.2 1.1 0 2 .5 2 .4 0 1.4 2.2 2.1 5 .7 2.7 1.6 5 2 5 .4 0 .6.9.4 2-.2 1.1.1 2 .7 2s.8.3.4.7c-.4.4-5.6.7-11.7.8-10.6 0-10.9-.1-10.9-2.2 0-1.2.4-3.2.9-4.5 1.6-3.9 2.4-6.3 2.5-7 .1-.3.4-1 .9-1.4.4-.4.7-1.6.7-2.6s.5-1.8 1.1-1.8c.5 0 .7-.5.4-1-.4-.6-.3-1.9.1-2.8.4-.9.8-2 .9-2.5.2-.4.4-.9.5-1.2.3-.6.5-1.1 1.5-4.2.9-2.6 3.5-2 3 .8zM658.7 317.7c-.2.1-2.1.4-4.3.5l-3.9.3-.1 48.5-.1 48.5 10.9-.1c5.9 0 10.8.3 10.8.8 0 .4.9.3 2-.4 1.9-1.2 2-2.4 2-20.1V377l19.8.2 19.7.3.2 15.5c.1 8.5.2 17.1.2 19l.1 3.5 12.2-.1c6.8-.1 12.5-.2 12.8-.3 1.1-.2.6-96.1-.5-96.2-.5 0-5.8 0-11.7.1-8.1.1-10.8-.2-10.8-1.1 0-.9-.3-1-1.1-.2-.7.7-1.1 7.4-1.1 18.4 0 11.9-.4 17.6-1.2 18.1-.6.4-9.5.8-19.8.8H676l-.2-18.3-.3-18.2-3.5-.2c-1.9-.1-5.6-.3-8.3-.5-2.6-.3-4.9-.3-5-.1zM882.1 317.7c-.1.8-1.4 1.2-3.8 1-3.3-.2-3.8.1-3.5 1.8.2 1.1 1 2.4 1.8 2.8.8.4 1.4 1.3 1.4 2 0 1.2 4.9 9.1 7.3 11.7.8.8 1.7 2.3 2 3.2.4 1 1.1 1.8 1.7 1.8.6 0 .8.4.5 1-.3.5.3 2 1.4 3.2 1.2 1.2 2.1 2.8 2.1 3.5 0 .7.5 1.3 1.1 1.3.6 0 .9.5.7 1.2-.2.6.3 1.9 1.1 2.8.9.9 2.2 2.5 2.8 3.6.7 1 2.6 3.9 4.3 6.4 1.6 2.5 3 4.9 3 5.4s.8 1.5 1.8 2.2c1.5 1.1 1.8 3.7 2.2 22l.5 20.8h25v-19.2c0-10.6.3-19.2.8-19.2.4 0 .7-.7.7-1.5s.5-1.5 1.2-1.5c.6 0 .8-.3.5-.6-.3-.4.3-1.8 1.3-3.2 1.1-1.3 2-3 2-3.7 0-.7.7-1.5 1.5-1.9.8-.3 1.5-1 1.5-1.7 0-.6 2.5-4.8 5.5-9.4 3-4.5 5.5-8.5 5.5-8.9 0-.4.5-1.2 1-1.9 2.3-2.8 7-10.3 7-11.3 0-.7.7-1.5 1.6-1.8.9-.4 1.4-.9 1.1-1.2-.6-.6.2-1.7 3.6-5.5.9-1 1.7-2.4 1.7-2.9 0-.6-5.4-1-14.2-1l-14.3.1-2.7 4.2c-1.5 2.4-3.2 5.5-3.7 7-.6 1.5-1.5 2.7-2.1 2.7-.5 0-.9.3-.8.7.3 1-6.9 14-8.2 14.8-.6.4-.8 1.1-.5 1.6.4.5.1.9-.4.9-.6 0-1.1.8-1.2 1.7 0 1.4-.3 1.3-1.1-.5-.6-1.2-1.4-2.2-1.8-2.2-.4 0-2.2-2.9-4-6.5-1.8-3.6-3.8-6.5-4.3-6.5-.6 0-.7-.3-.4-.6.3-.4-.3-1.8-1.3-3.2-1.1-1.3-2-3.1-2-3.8 0-.8-.4-1.4-.8-1.4-.9 0-4.7-7.1-4.4-8.3.1-.4-4.5-.7-10.2-.7-7.4 0-10.6-.4-10.9-1.3-.4-.9-.6-.9-.6 0zM795.5 318.9c.3.2-.2 1.3-1 2.5-.8 1.1-1.5 2.7-1.5 3.6 0 .9-.8 3.2-1.8 5.2-1.1 2-2.5 5.7-3.2 8.2-.7 2.5-1.7 4.6-2.1 4.6-.5 0-.9.8-.9 1.9 0 1-.8 3.6-1.7 5.7-.9 2.2-1.8 4.3-1.9 4.9-1.5 4.9-3 8.5-3.7 8.5-.5 0-.5.4-.2 1 .3.5.3 1.6-.2 2.2-.4.7-.8 1.5-.8 1.8-.3 1.9-3.1 8-3.7 8-.4 0-.7.3-.6.7.3 1.7-2.5 10.3-3.4 10.3-.5 0-.7.4-.4.9.3.5-.1 2.2-.9 3.7-.8 1.6-1.5 3.6-1.5 4.5 0 .8-.7 2.4-1.5 3.5-.8 1-1.5 2.6-1.5 3.4 0 .9-.8 3.2-1.8 5.2-3 5.9-2.1 6.3 12.5 6.1 7 0 13.1-.2 13.4-.2.6-.1 3.4-6 3.4-7.3 0-.3.3-1 .8-1.4.4-.4.7-1.4.7-2.3 0-1.4 2.3-1.6 19.1-1.6 17 .1 19.2.3 20 1.8.6.9.7 1.7.4 1.7-.3 0 .1 1 .9 2.2.9 1.2 1.6 3.3 1.6 4.5 0 2.6-1 2.4 15.5 2.7 14.4.2 14.7.1 13.5-2.9-.5-1.3-.6-2.6-.3-2.9.4-.3.1-.6-.5-.6-.7 0-1.2-.4-1.2-.9s-.5-2.2-1.2-3.8c-.6-1.5-1-3.4-.9-4.1.1-.6-.2-1.2-.8-1.2-.5 0-1.3-1.5-1.6-3.3-.4-1.7-1.1-4.1-1.5-5.2-.4-1.1-.8-2.4-.8-2.9s-.4-1.2-.9-1.5c-.7-.6-2.9-5.6-3.8-9.1-1.2-4.4-4.1-11.6-5-12.2-.5-.4-.6-1-.3-1.4.4-.4.1-1.6-.7-2.8-.8-1.1-1.5-2.8-1.5-3.8s-.4-1.8-1-1.8c-.5 0-.7-.6-.4-1.4.3-.8 0-1.7-.5-2.1-.6-.3-.9-1.1-.6-1.6.4-.5.2-.9-.3-.9-.6 0-1.3-1.5-1.6-3.3-.3-1.8-1.5-5.1-2.6-7.2-1.1-2.2-2-4.7-2-5.7 0-.9-.5-2-1-2.3-.6-.4-.8-1.1-.5-1.6.4-.5.1-.9-.6-.9-.6 0-.9-.8-.6-2 .3-1.1.1-2-.4-2s-.9-.9-.9-2-.6-2.3-1.4-2.6c-1.6-.6-32.6-1.1-32.1-.5zm16.9 28.6c-.4.8-.1 1.5.5 1.5s1 .3.9.7c-.4 1.2 6.5 21.8 7.4 22.1.5.2.5.8.2 1.3-.3.6-.2 1.5.3 2.2.5.7.9 1.9.9 2.7-.1 1.1-2 1.4-10.1 1.5-13.4.1-13.6 0-11.9-3.3.8-1.5 1.4-3.5 1.4-4.5 0-.9.5-1.7 1.1-1.7.5 0 .7-.5.4-1-.4-.6-.3-1.6.3-2.3.5-.7 1.5-3.5 2.2-6.2.7-2.8 1.7-5.6 2.3-6.3.5-.6.6-1.2.2-1.2-.4 0-.2-.7.5-1.5.7-.9 1-1.8.7-2.2-.8-.7 1.1-3.3 2.4-3.3.5 0 .6.7.3 1.5zM1014.6 321.4c-.3 1.4-1.1 3.8-1.8 5.3-.6 1.5-1.2 3-1.3 3.3-.1.3-.5 1.2-.8 2-1.8 4.2-3 7.6-3.1 8.5-.1.5-.6 1.9-1.3 3-.6 1.1-1.4 3.7-1.8 5.8-.4 2-1.1 3.7-1.7 3.7-.5 0-.6.4-.3 1 .3.5.2 1-.2 1-.5 0-1.5 2.1-2.2 4.7-.8 2.7-1.7 5.2-2.1 5.8-.6.8-3.8 9.7-4.5 12.5-.1.3-.9 2.2-1.8 4.2-1 2.1-1.7 4.4-1.7 5.1 0 .8-.3 1.7-.7 2.1-.7.6-1.3 2.9-1.5 5.3-.1.7-.5 1.3-1 1.3-.4 0-.8.7-.8 1.6 0 .9-.6 2.8-1.4 4.2-3.2 6.3-5.4 13.1-4.2 13.4.6.3 7.1.4 14.5.3l13.3-.1 1.8-4.7c1-2.6 1.9-5 1.9-5.3.2-2.6 2.4-2.9 20.4-2.9 14.5 0 18.7.2 18.7 1.2 0 .7.4 1.3.9 1.3s1.2 1.8 1.6 4c1.1 6.3 1.6 6.6 16.1 6.4 15.7-.2 14.4 0 14.4-2.5 0-1.1-.4-1.8-.9-1.4-.6.3-1.3-1-1.7-3-.3-1.9-1-3.8-1.5-4.1-.5-.3-.6-1-.3-1.6.4-.6.1-1.4-.6-1.8-.7-.5-1.4-1.6-1.5-2.7-.2-1.8-.6-2.8-2.8-8.8-.7-1.7-1.1-3.3-.9-3.8.1-.4-.2-.7-.8-.7-.5 0-1.2-1.7-1.6-3.8-.4-2-1.2-4.8-1.9-6.2-1.6-3.2-3.8-8.2-4.1-9.5-.1-.6-1.4-4-2.8-7.6-1.4-3.7-2.2-6.9-1.9-7.3.4-.3.1-.6-.5-.6s-1.4-1.6-1.8-3.5c-.3-1.9-1-3.5-1.6-3.5-.5 0-.6-.5-.3-1 .3-.6.1-1-.4-1-.6 0-1-.3-.9-.8.2-.9-1.3-5.6-4.5-14.2l-2.5-6.5-16.5-.3-16.5-.2-.6 2.4zm18.8 27c-.1.9.2 1.6.6 1.6.5 0 1.1 1.9 1.5 4.2.4 2.4 1.2 5.4 1.8 6.8.6 1.4 1.1 2.7 1.2 3 2 6.8 3.2 9.9 4.4 11.8 1 1.7 1.1 2.6.3 3.1-1.3.7-21.9.7-22.7 0-.3-.3.2-2.3.9-4.5 1.9-5.1 2.4-6.8 2.2-7.5 0-.3.5-1.3 1.2-2.2.8-.9 1.1-2.1.8-2.6-.4-.5-.2-1.2.4-1.6.5-.3 1-1.5 1-2.6 0-1 .4-1.9.8-1.9s.9-.9 1-2c.4-4.3.6-5 1.4-5 .4 0 .8-.7.8-1.6 0-.9.6-1.4 1.3-1.1.6.2 1.1 1.2 1.1 2.1zM583.4 475.1c-.2.4-1.6 1-3.1 1.4-1.5.3-3.1 1.2-3.5 1.8-.4.7-1.3 1.2-1.9 1.2-.7 0-1.7.9-2.3 2-.6 1.1-1.6 2.3-2.2 2.7-.6.4-1.6 2.6-2.3 5-.8 2.4-1.6 5-1.9 5.8-.9 2.4-.9 13 0 13 .4 0 .8 1.5.8 3.3 0 5 5.4 12.9 17.2 25.1 5.9 6.1 11.4 11.8 12.2 12.6 1.9 2 5 9.1 4.9 11.2 0 1 .4 1.8.8 1.8.5 0 .9.9.9 2s-.5 2-1.1 2c-.6 0-.9.7-.5 1.5.9 2.4-4.9 6-9.7 6.1-5.9.1-9.3-3.7-10.3-11.2l-.7-5.6-6.1.6c-3.3.3-7.1.6-8.4.6-2.2 0-2.3.3-1.9 4.8.3 2.6.8 5.8 1.2 7.2.4 1.4.8 3.3.8 4.2.1 1 .5 1.8.9 1.8s.8.5.8 1c0 .6 2 3.1 4.5 5.7 2.5 2.5 4.5 4.2 4.5 3.8 0-.4.6-.3 1.3.3 2.4 2 9.3 3.8 14.2 3.6 4.7-.1 5.9-.4 11-2.3 1.1-.5 2.2-.8 2.5-.8 1 .1 8.5-8 9.7-10.4 2.9-5.7 4.7-16.9 3.2-19.4-.3-.6-.9-2.5-1.3-4.4-.7-3.6-6.1-13-8.3-14.4-.7-.4-1.3-1.3-1.3-1.8 0-.6-3.9-5.1-8.7-9.9-9.5-9.7-14.3-15.6-14.3-17.7 0-.7-.5-1.3-1.1-1.3-.6 0-.9-.7-.6-1.5.4-.8.2-1.7-.3-2-.6-.4-1-1.4-1-2.4 0-2.2 3.5-10.2 4.4-10.2.3.1.9 0 1.4-.1 2.5-.5 7.2-.3 7.2.4 0 .4.7.8 1.6.8.8 0 1.2.4.9 1-.3.5-.2 1 .4 1 1 0 2.4 5.4 2.5 9.5.1 1.7.9 2 4.6 2.2 2.4.1 5-.3 5.7-.8.7-.6 1.6-.8 2.2-.5.5.3 1.6.3 2.5 0 2-.8 2.3-10.3.4-12.2-.7-.7-.9-1.2-.5-1.2.9 0-2-5.9-4.1-8.3-.8-.9-1.1-1.7-.7-1.7.4 0-1.2-1.3-3.6-3-2.4-1.6-5.1-3-6-3-.9 0-1.9-.3-2.3-.7-.9-.9-14.6-1.1-15.2-.2zM810 475c0 .3-1.8 1.1-4 1.8-4.5 1.4-9 4.9-9 6.9 0 .8-.7 1.6-1.4 1.9-.8.3-2 3.1-2.7 6.2-2.2 10.5-.9 24.3 2.5 26.8.9.6 1.6 1.6 1.6 2.1 0 .6.7 1.6 1.5 2.3.9.7 1.3 1.5 1.1 1.8-.3.3 1.8 2.8 4.7 5.6 2.9 2.8 5.6 5.9 6 6.8.3 1 1.3 1.8 2.1 1.8.7 0 1.6.9 1.9 2.1.3 1.2 1 1.8 1.6 1.4.6-.3 1.1-.1 1.1.5 0 .7 1.6 2.8 3.6 4.8 3.4 3.4 7.1 9.2 5.8 9.2-.4 0-.2.6.3 1.2.6.7 1 3.2 1 5.5.1 8.5-9.2 12.8-16.7 7.7-1.9-1.3-3-2.4-2.5-2.4s.4-.5-.3-1.2-1.2-3.4-1.2-6.1v-4.9l-6.2.6c-11.2 1.1-10.3.5-10.4 6.1 0 5.2 3 14.4 5.3 15.8.7.4 1.3 1.5 1.3 2.3 0 .8 1.1 1.9 2.4 2.4 1.3.5 2.8 1.5 3.3 2.3 1 1.8 8.6 3.9 14.3 3.9 4.7.1 8.6-.6 13.3-2.4 2.7-1 10.7-8 10.9-9.5.3-1.8 2.3-6.3 2.8-6.3.8 0 .6-17.8-.3-18.6-.4-.4-.7-1.4-.7-2.3-.1-3.5-8.3-14.1-21.5-27.8-4.4-4.5-7.9-8.7-7.7-9.3.2-.5-.1-1-.8-1-.6 0-1.6-1.4-2.1-3-.6-1.7-1.4-3-1.8-3-1.5 0-.5-9.6 1.3-12.5 1.5-2.5 2.5-3.1 5.8-3.2 4.4-.2 8.8 2.7 8.8 5.9 0 1 .4 1.8.9 1.8.4 0 .8 1.7.7 3.7-.1 3.7 0 3.8 3.7 4.1 2.1.2 4.4-.2 5.2-.8.7-.6 2.5-.9 3.9-.6 2.1.4 2.7 0 3.2-1.8.4-1.9-.3-7.8-1.9-14.2-1-4.1-8.8-12.2-12.6-13.1-1.4-.3-3-.8-3.6-1.2-1.3-.7-14.5-.8-14.5-.1zM111.2 475.8l-6.2.3.2 56.2.3 56.2 8.8.3 8.7.3v-46.2l4.3.3c3.8.3 4.2.6 4.5 3 .2 1.6.8 2.8 1.3 2.8.6 0 .7.9.4 2-.4 1.1-.2 2 .4 2 .6 0 1.1 1.2 1.1 2.7 0 1.6.7 4.9 1.4 7.5.8 2.5 1.2 4.9.9 5.2-.4.3-.1.6.6.6.8 0 1.1.8.8 2-.3 1.1-.2 2.2.3 2.5.4.3 1.1 2.5 1.4 5 .4 2.5 1.1 4.5 1.6 4.5s.7.9.5 1.9c-.6 3.3 1.8 4.2 10.1 3.9 7.7-.3 7.8-.3 7.9-3.1.1-1.5-.1-2.7-.5-2.7s-1.1-2-1.4-4.5c-.4-2.4-1.1-4.7-1.6-5-.5-.3-.7-1.2-.3-2 .3-.8 0-1.5-.7-1.5-.8 0-1.1-.9-.8-2.5.3-1.4.1-2.5-.3-2.5-.5 0-.9-1.4-.9-3 0-1.7-.4-3-1-3-.5 0-.7-.7-.4-1.5.4-.8.1-1.5-.6-1.5s-1-.7-.7-1.5c.4-.8.2-1.7-.4-2-.5-.4-.9-1.2-.8-1.8.3-1.5-1-6.7-2-8.7-.9-1.6 0-5.2 1.2-5 .9.1 3.7-2.6 3.7-3.5 0-.4 1-2.1 2.2-3.8 2.5-3.6 2.9-5.6 3.5-19 .4-9.6-1-20.7-2.7-20.7-.5 0-1.4-1.6-2-3.5-.6-1.9-1.5-3.3-2-3-.4.3-1-.2-1.3-1-.8-1.9-8.5-5.8-10.2-5.1-.8.3-1.5 0-1.7-.5-.3-1-16-1.7-27.6-1.1zm25.5 18.2c4 1.8 4.3 3 4.3 16.2v10.6l-3.1 2.6c-2.5 2.2-4.1 2.6-9 2.6H123v-16.4c0-18.2-.4-17.2 6.9-17 2 0 5 .6 6.8 1.4zM177.9 475.8l-4.7.3.3 44.7c.2 24.6.5 46 .8 47.7 1 7.2 6.3 16.5 9.3 16.5.6 0 1.4.7 1.7 1.4.3.8 2.2 1.8 4.1 2.2 2 .3 3.6.9 3.6 1.3 0 .9 12.7.7 13.6-.2.4-.4 1.9-.7 3.3-.7 3.5 0 14.5-11.5 15.5-16 .3-1.8.6-24.3.6-50.1v-46.8l-2.2-.3c-1.3-.2-5.1-.2-8.4 0l-6.2.4.2 45.4c0 25-.2 45.4-.5 45.4-.4 0-1 1.1-1.3 2.4-.3 1.3-1.4 2.7-2.3 3.1-2.9 1.2-8.2 1.4-8.9.4-.3-.5-.9-.7-1.4-.4-.5.3-1.5-.9-2.3-2.7-1.2-2.7-1.5-10.9-1.3-48.5l.1-45.1-4.5-.4c-2.5-.2-6.6-.2-9.1 0zM249.5 475.8c-2.7.2-5.4.7-5.9 1.2-1.2 1.2-1.1 109.9.1 111.1 1.1 1.1 32 .7 36.2-.4 1.3-.3 3.1-1.3 4.1-2.2.9-.8 2.2-1.5 2.8-1.5 2.2 0 9.1-11.8 8.4-14.4-.2-.4.1-1.3.6-2 1.2-1.4 1.2-70.5.1-71.2-.4-.2-.6-1.1-.2-1.9.3-.8.1-1.5-.5-1.5-.5 0-1.2-1.4-1.6-3.1-1.1-5.7-9.8-12.2-17.8-13.4-5.4-.8-18.8-1.2-26.3-.7zm23.3 17.1c.7.1 2.3 1.2 3.6 2.6l2.4 2.6v34.4c0 21.5-.3 34.5-1 34.5-.5 0-.7.4-.3 1 1.1 1.8-4.5 4.2-10.5 4.4l-6 .2-.1-3.5c-.1-4.8-.1-67.6 0-72.6l.1-4 5.2.2c2.9.1 5.9.2 6.6.2zM319.5 475.8c-3.3.2-6.3.8-6.6 1.4-.8 1.3-1 107.4-.3 110 .5 1.5 1.8 1.8 9 1.8h8.4v-13.3c.1-17.8.1-87.9 0-94.3 0-5.9-.3-6.1-10.5-5.6zM353.4 475.8l-5.2.3V589H365l.1-34.3c.1-24.6.4-33.2 1.1-30.7.5 1.9 1.3 3.9 1.8 4.5.4.5 1.1 2.9 1.5 5.2.4 2.4 1.1 4.5 1.5 4.8.5.3.7 1.2.3 2-.3.8-.1 1.5.4 1.5.6 0 1.6 2.6 2.3 5.7.7 3.2 1.6 6.2 1.9 6.8.3.5.6 1.3.7 1.7.1.5.3 1 .4 1.3.3.6.4 1.1 1.4 5 .9 3.6 4.4 14.8 6 19 .6 1.6 1 3.4.8 3.9-.8 2.5 2.3 3.6 10.8 3.6h8.7l-.1-56.2-.1-56.3-2.9-.5c-1.6-.3-5.3-.3-8.2-.2l-5.4.4v35.6c0 32-.2 35.4-1.5 32.9-.8-1.6-1.4-3.1-1.3-3.5.2-1.4-2.6-10.2-3.3-10.2-.4 0-.6-1.4-.4-3 .2-1.7-.1-3-.7-3-.5 0-.8-.7-.5-1.5.4-.8.2-1.7-.3-2-.6-.4-1-1.7-1-3s-.5-2.7-1-3c-.6-.4-.8-1.1-.4-1.6.3-.5.1-1.5-.4-2.2-.5-.7-.8-2-.7-3 .2-.9-.1-1.7-.5-1.7-.5 0-1.2-2-1.6-4.5-.3-2.5-1-4.5-1.4-4.5-.5 0-.6-.9-.3-2 .3-1.2 0-2-.7-2s-1-.8-.7-2c.3-1.1.1-2.2-.3-2.5-.5-.3-1.1-2.4-1.5-4.8-.4-2.3-1.2-4.7-1.7-5.4-.5-.7-.7-1.6-.4-2.2.7-1.1-6.5-1.7-14-1.3zM429.8 475.8c-5.6.2-6.8.6-6.9 2v108.9c.1 2.2.5 2.3 8.4 2.3h8.2v-56.1c-.1-48.3-.3-56.2-1.5-56.7-.8-.4-4.5-.6-8.2-.4zM646.8 476.1c-1.2.8-2.7 7.9-2.8 13.1 0 2.1-.4 3.8-.8 3.8s-.9 1.5-1 3.2c-.4 5.2-.9 9.1-1.6 11.8-.4 1.4-1.1 5.6-1.6 9.5-.6 3.8-1.2 8.1-1.4 9.5-2.3 12.7-3.7 21.1-3.9 24-.1 1.9-.5 4-.9 4.5-.3.6-.5 2.5-.4 4.3.1 1.7-.1 3.2-.6 3.2-.4 0-.8 1.5-.8 3.3 0 1.9-.3 3.7-.7 4.1-.7.7-.9 2.1-1.6 11.1-.1 2.2-.6 4.6-1 5.3-1.2 1.8 1.1 2.3 9.4 2l7.4-.3.3-3.8c.2-2 .7-3.7 1.1-3.7.4 0 .9-1.5.9-3.3.5-9.1.9-11.7 2.1-13.1.9-1 1.8-1.3 2.5-.7 1.6 1.2 9.6 1 9.6-.3 0-.6.5-.4 1 .4.8 1.3 1 1.3 1 0 0-1.2.3-1.1 1.7.3 1.5 1.4 2.7 7 3.7 17.2.2 1.6.4 3.1.6 3.2.3.3.7 1.8.9 3.3.1 1.2 15 1.3 17 .1.9-.6 1-1.1.2-1.5-.6-.4-1.1-1.7-1.1-2.9s-.4-4.9-1-8.2c-.6-3.3-1.1-7.5-1.1-9.3-.1-1.7-.5-3.2-.9-3.2s-.7-1.5-.8-3.3c-.1-3.8-2.1-16.6-2.9-18.7-.6-1.5-1.2-6.5-1.6-12.8-.1-1.7-.5-3.2-.8-3.2-.5 0-1.9-9.9-2.1-15 0-.8-.5-2-.9-2.6-.5-.6-.6-2.1-.4-3.4.2-1.3.1-2.8-.4-3.4-.4-.6-.8-1.8-.9-2.6 0-.8-.5-4.4-1.1-8-.6-3.6-1.3-8-1.5-9.8-.3-1.9-.6-3.6-.9-3.8-.7-.7-20.8-.9-21.9-.3zm11.9 35.9c.3.8.6 3.3.5 5.4-.1 2.2.3 4.5.8 5.1.5.6.8 2.4.6 4-.1 1.7.1 3.4.5 4 .4.5 1 4.4 1.4 8.6l.7 7.6-6-.1c-3.3 0-6.4-.4-6.8-.9-.4-.4-.3-.7.3-.7s1.1-1.2 1.1-2.8c0-1.5.5-6.1 1.1-10.2.6-4.1 1.2-9 1.3-10.8.1-1.7.4-3.2.7-3.2.4 0 .7-1.7.8-3.8.2-3.3.7-6.9 1.4-9.7.1-.6.4.6.6 2.5.2 1.9.7 4.2 1 5zM701.7 475.8l-2.7.3.2 56.2.3 56.2h17l-.1-4.5c-.5-14.6-.5-57.1 0-57.9.3-.5.3-1.1-.1-1.3-.5-.1-.5-2.1-.2-4.3.3-2.2.7-3 .8-1.8 0 1.3.5 2.3.9 2.3s.9 1 1 2.2c.2 3.2 1 7.4 2.2 13.3 1.3 6 2 9.3 2.3 12 .1 1.1.6 2.5.9 3 .4.6 1 3.9 1.4 7.3.3 3.4 1 6.2 1.5 6.2.4 0 .6 1.3.4 3-.2 1.6 0 3 .5 3 .6 0 1 1 1 2.2 0 3.9 1.2 9.8 2 9.8.4 0 .6 1.3.4 3l-.4 3h6.4c6.4 0 6.4 0 7.2-3.3.5-1.7.8-4 .7-5 0-.9.3-1.7.8-1.7.4 0 .8-1.2.8-2.8-.1-1.5.4-5 1-7.7 2-9.1 2.2-10 2.4-12.8.1-1.5.5-2.7.9-2.7.3 0 1-2.9 1.3-6.5.4-3.6 1-6.5 1.4-6.5.3 0 .7-1.2.9-2.8.1-1.5.4-4.2.6-6 .1-1.7.6-3.5.9-3.9.4-.3.7-1.9.7-3.4s.5-3.1 1-3.4c.6-.4.8-1 .5-1.5-.3-.5-.2-1.1.3-1.4.4-.2.8 15.6.7 35.2v35.7l8.3.3c4.5.2 8.2-.1 8.3-.5 0-.4.1-25.9.2-56.5l.2-55.7-8.5-.3c-13.4-.5-15.7-.1-16.6 3-.4 1.5-.8 3.6-.9 4.7-.1 1.1-.5 2.8-1 3.7-.4 1-.5 2.5-.2 3.3.4.8.2 1.7-.2 1.9-.5.3-1.2 2.9-1.6 5.8-.8 5.5-1.1 6.6-1.5 7-.1.2-.3 1.4-.4 2.8-.2 1.4-.6 3.3-1 4.2-.5 1-.6 2.5-.3 3.3.4.8.2 1.7-.3 2-.6.4-1 2.4-1 4.5s-.4 4.1-.9 4.4c-.5.4-.8 1.7-.6 3.1.1 1.4-.1 2.8-.6 3.1-.5.3-.7 1.8-.5 3.4.2 1.7-.1 3-.5 3-.5 0-1 1.7-1 3.7-.1 2.2-.3 3-.6 1.8-.3-1.1-.9-2.5-1.4-3.1-.4-.5-.6-2.2-.4-3.6.3-1.5.1-2.9-.4-3.3-.6-.3-1.3-3.2-1.7-6.5-.4-3.3-1-6-1.4-6-.5 0-.6-1.4-.4-3 .3-1.7.1-3-.5-3s-1-.3-.9-.8c.4-1.5-1.4-11.2-2.2-11.7-.4-.3-.6-1.4-.3-2.5s0-2.6-.6-3.3c-.6-.8-.9-2.3-.6-3.5.2-1.2 0-2.4-.6-2.7-.5-.4-.9-2.1-.9-3.8 0-4.5-1.9-10.7-3.4-11.3-1.6-.6-17-1-20.9-.6zM865.5 476l-7 .5V524c-.1 26.1.2 47.9.6 48.5.4.5 1 2 1.3 3.2 1.2 3.9 10.1 12.1 14 12.8 2 .4 3.6 1 3.6 1.4 0 .8 11.8.6 12.7-.2.3-.4 1.8-.7 3.2-.7 3.5 0 14.5-11.5 15.5-16 .3-1.8.6-24.3.6-50v-46.8l-6.9-.4c-3.8-.2-7.5-.2-8.3 0-1.3.2-1.5 6.7-1.5 46.2 0 41.4-.2 46.1-1.7 48.5-.9 1.4-2.1 2.3-2.6 2-.6-.4-1-.2-1 .3 0 1.1-6 1-7.7-.1-.7-.5-1.3-.5-1.3 0-.1 1-1.7-1.8-2-3.2-.1-.6-.5-1.5-1-2-.4-.6-.7-21.2-.7-45.9 0-37.6-.2-44.9-1.4-45.5-.8-.3-4.5-.4-8.4-.1zM927.9 514c-.1 21.2-.1 38.9 0 39.3.1.5.1 8.7.2 18.4v17.5l16.7-.5c20-.7 19.1-.6 22.1-2.9 1.3-1 2.9-1.8 3.5-1.8 1.3 0 5.2-4.1 4.9-5.2-.1-.3.4-1.2 1.2-1.8.8-.7 1.5-2.1 1.5-3.1 0-1.1.4-1.9.9-1.9 1.3 0 1.2 1.5 1.6-38.5.1-19.3-.1-35.5-.5-36-.4-.6-.6-1.8-.5-2.8.2-.9-.1-1.7-.6-1.7s-.9-.8-.9-1.9c0-1-.7-2.4-1.5-3.1-.9-.7-1.4-1.5-1.1-1.7.5-.5-3.9-5.3-4.9-5.3-.4 0-1.9-.9-3.4-1.9-3.5-2.5-10-3.4-26.2-3.5l-12.9-.1-.1 38.5zm32.4-18.8l3.2 2.5.3 32c.2 17.6-.1 33.5-.5 35.3-1.3 5-5.1 7.3-12.3 7.5-5.8.1-6 0-6-2.5-.6-31.5-.1-76.3.7-76.8.6-.4 3.4-.7 6.3-.7 4 .1 5.8.7 8.3 2.7zM1002 476l-4.5.5v56.2l-.1 56.3h7.8c4.2 0 8-.5 8.3-1 .8-1.2 1-110.9.2-111.6-.7-.7-6.8-.9-11.7-.4zM1032.2 531.1c0 30.6.3 56.1.7 56.8.5.8 3.2 1.1 8.2.9l7.4-.3.5-34.5c.3-19 .6-33.7.8-32.8.1 1 .7 1.8 1.2 1.8.6 0 .8 1.3.5 3-.3 1.6-.1 3 .4 3 1 0 3.6 7.7 3.2 9.4-.1.4.3 1.4 1 2.2.6.7.8 1.8.4 2.4-.3.5-.2 1 .4 1 .5 0 1.2 1.8 1.6 4 .4 2.2 1.1 4.2 1.5 4.5.5.3.7 1.4.5 2.5-.2 1.1 0 2 .4 2 .5 0 1.2 1.7 1.6 3.7.4 2.1 1.1 4.4 1.7 5 .6.7.7 1.3.3 1.3-.4 0-.2.6.4 1.4.6.8 1.1 1.8 1 2.2-.2.5.6 3.6 1.6 6.9 1.1 3.3 1.8 6.3 1.7 6.7-.1.5.3.8.8.8.6 0 1 .6 1 1.4 0 1.6 5.2 2.7 9.5 2 1.7-.2 4.1-.5 5.5-.7l2.5-.2.1-55.8.2-55.8-8.2.3-8.1.3-.5 36.5c-.3 24.8-.8 35.5-1.4 33.5-1.1-3.5-1.7-6.1-1.9-9.3-.1-1.2-.5-2.2-.9-2.2-.5 0-.8-.9-.8-2s-.4-2-.8-2-.9-1-.9-2.3c-.2-3.1-.8-5.5-1.6-6.3-.4-.4-.7-1.5-.7-2.5s-.5-3-1.2-4.6c-.6-1.5-1.2-3.6-1.2-4.5-.1-.9-.4-2-.8-2.4-.5-.4-.8-1.6-.8-2.6s-.4-1.8-.9-1.8-.7-.9-.4-1.9c.3-1.1-.3-3.5-1.2-5.5-.9-1.9-1.4-3.9-1.1-4.5.4-.5.2-1.2-.3-1.5-.5-.3-1.2-2.6-1.5-5.1-.4-2.5-1.2-4.5-1.8-4.5-.5 0-.8-.6-.5-1.4 1-2.6-2-3.7-10.6-3.9l-8.5-.2v55.6zM484.9 523.5c-.1 0-.2 3.5-.3 7.9-.1 4.9.2 8.3.9 9 .8.8 6.5 1.1 18.6 1 9.6-.1 17.7-.2 18.2-.3.4 0 .7-4 .7-8.9v-8.7h-38.1zM107.3 635.2c-.6.8-.9 79.3-.9 208.7l.1 207.3 4.9 1.9c2.7 1 5.3 1.6 5.8 1.3.4-.3.8-.1.8.4s2 1.3 4.5 1.6c2.5.4 4.5 1.2 4.5 1.8 0 .5.7.8 1.5.5.8-.4 2.7 0 4.2.8s3.8 1.5 5 1.5c1.2 0 2.4.4 2.8.9.3.6 1.4.8 2.5.6 1.1-.2 2 0 2 .6 0 .5.3.8.8.8 1.3-.3 7.2 1.3 7.2 2 0 .3 1.1.7 2.5.8 5.4.5 6.5.8 6.5 1.3s6 2.4 11.3 3.6c.4.1 1 .3 1.5.4.4.2 1.2.4 1.7.5 2.1.3 9.1 2.8 10.1 3.6.6.5 1.9.7 2.8.3.9-.3 1.6-.1 1.6.5s.3 1 .8.9c1.5-.3 8.2 1.5 8.8 2.3.3.5 1 .7 1.5.3.5-.3 1.5-.1 2.2.4.7.5 3.8 1.5 7 2.2 3.1.7 5.7 1.7 5.7 2.1 0 .4.8.6 1.8.4.9-.1 2.2.1 2.7.5.9.7 9.5 3 12.3 3.2.6.1 1.2.5 1.2 1s.6.8 1.3.7c.6-.1 1.9 0 2.7.3 5.7 2.2 6.2 2.3 10.5 3 1.1.2 2.2.6 2.5.9.4.5 4.2 1.6 11 3.4.8.2 1.5.4 1.5.5 0 .1.7.3 1.5.5s4 1.1 7 2c3 .9 6.2 1.7 7 1.9.8.2 2.2.6 3 .9 6.2 2.3 17.1 5.6 20.3 6.2 2 .4 3.7 1.1 3.7 1.5 0 .5 1.1.7 2.5.5 1.4-.1 2.5.2 2.5.7 0 .5.8.9 1.8.8 2.3-.3 6.2 1 6.2 2.1 0 .4 1 .6 2.2.4 1.2-.3 2.5-.1 2.8.3.4.6 4.9 2 14.5 4.5.6.1 1.5.5 2 .9.6.3 2.9.9 5.3 1.3 2.3.4 4.2 1.1 4.2 1.7 0 .6.6.8 1.4.5.7-.3 1.7-.2 2.2.3.5.5 3.9 1.5 7.7 2.2 3.7.7 6.7 1.6 6.7 2.1 0 .4.4.5 1 .2.5-.3 1-.2 1 .3 0 .6 2.2 1.3 5 1.7 2.7.4 5.2 1.1 5.5 1.6.3.4 1.2.6 2 .2.8-.3 1.5 0 1.5.6s.3 1 .8.9c.4-.1 2.7.5 5.2 1.2s4.9 1.3 5.4 1.1c.4-.1 1.4.4 2.2 1 .8.6 1.4.8 1.4.4s.7-.2 1.5.5 2.2 1 3 .6c.8-.3 1.5-.1 1.5.4 0 .6 1.1 1 2.5 1s2.5.4 2.5.9c0 .6.9.8 2 .6 1.1-.2 2 0 2 .6 0 .5.9.9 2 .9 2.9 0 11 2.3 11 3.1 0 .4 1.1.6 2.5.4 1.4-.1 2.5.1 2.5.5s1.7 1.1 3.8 1.5c2 .4 4.3 1.1 5 1.7.6.6 1.2.7 1.2.3 0-.4.6-.2 1.4.4.8.7 2 1.1 2.8 1 1.4-.2 4.1.6 7 2.2 1 .5 2.4.6 3.3.3.8-.3 1.5-.1 1.5.5 0 .7.6 1.1 1.3 1 .6-.1 1.9 0 2.7.3 1.6.6 10.2 3.1 11 3.2.3.1 1.9.6 3.5 1.3 1.7.6 4.4 1.5 6 1.9 3.9 1 4.4 1.1 5 1.4.3.1.8.3 1.3.5.4.1 1.4.5 2.3.9.9.4 2 .6 2.5.5.5-.1 1.6 0 2.4.3.8.4 2.4.9 3.5 1.4 1.1.4 2.6.6 3.3.5.6-.1 1.2.3 1.2 1s1 .9 2.5.7c1.4-.3 2.5-.1 2.5.3 0 .5.9.9 2 .9s2 .3 2 .7c0 .5 1 .9 2.3.9 2.7.2 4.9.8 6.2 1.5.6.4 3.5 1.2 6.5 2 3 .7 6.1 1.7 6.8 2.2.7.6 1.5.7 1.9.4.3-.4 1.1-.3 1.7.2 1.2 1 9.2 3.4 11.6 3.5.8.1 2.1.5 2.9 1 .7.5 2.7 1.2 4.5 1.6 4.2 1.1 17.7 4.9 19.6 5.6.8.3 1.7.5 2 .5.3.1 1 .4 1.5.9.6.4 2.9 1.1 5.2 1.5 2.4.4 4.5 1.1 4.9 1.6.3.5.9.7 1.4.4.4-.3 2.5.2 4.6 1.1 3.8 1.6 9.7 1.2 12.1-.8.7-.5 1.7-.7 2.3-.3.5.3 1 .2 1-.3s2-1.3 4.5-1.6c2.5-.4 4.5-1.2 4.5-1.7 0-.6.5-.7 1-.4.6.4 1.7.2 2.4-.4.8-.7 1.8-1.1 2.2-1 1.5.3 7.4-1.3 8-2.2.2-.4 1.1-.6 1.9-.2.9.3 2.2 0 3-.7.8-.7 1.5-.9 1.5-.4 0 .4.5.3 1.2-.4s1.8-1.2 2.4-1.2c.7 0 2.5-.5 4.1-1.1 1.5-.7 3.5-1.3 4.3-1.4 1.4-.2 11.6-3.1 15-4.3.8-.3 2-.6 2.5-.8 1.9-.6 12-3.5 13.5-3.9.8-.2 1.6-.4 1.8-.5.1-.2.5-.3 1-.4 5.4-1.3 11.2-3.1 11.2-3.6 0-.4.6-.7 1.3-.8 1.8-.1 10-2.2 11.7-2.9.8-.3 1.8-.7 2.3-.8.4-.2.8-.3 1-.5.1-.1.9-.3 1.8-.5 1.4-.2 11-3 14.4-4.2.6-.1 3.4-.8 6.3-1.5 2.8-.7 5.2-1.5 5.2-1.9 0-.4.9-.6 2-.4 1.1.2 2 0 2-.5s2-1.2 4.5-1.6c2.5-.3 4.5-1.1 4.5-1.6s.4-.6 1-.3c.5.3 1.6.3 2.2-.2.7-.4 1.8-.9 2.3-1 .6-.1 3.5-1 6.5-1.9 3-.8 6.2-1.6 7-1.7.8-.2 2.4-.7 3.5-1.3 1.1-.6 3.8-1.5 6-1.9 2.2-.4 4.5-1.1 5.1-1.6.7-.5 1.6-.9 2-.8 1.4.3 10.4-2.4 10.4-3.2 0-.3 1.1-.5 2.5-.4 1.4.2 2.5-.1 2.5-.6s.3-.8.8-.7c1 .2 9.5-2.2 10.7-3.2.6-.4 1.7-.8 2.5-.8 3.5-.3 12-2.7 12-3.4 0-.4.7-.5 1.6-.1.9.3 1.9.2 2.3-.4.5-.8 11.4-4.1 14.9-4.5.6-.1 1.2-.5 1.2-1 0-.4 1.1-.8 2.5-.8s4.1-.7 6-1.4c1.9-.8 3.5-1.2 3.5-.9 0 .3.6.1 1.3-.5 1.4-1.2 9.2-3.4 11.9-3.3 1 0 2-.5 2.3-1 .4-.5 1.1-.7 1.6-.4.5.4.9.2.9-.3 0-.6 2.2-1.3 5-1.7 2.7-.4 5.3-1.1 5.6-1.6.3-.5 1-.7 1.5-.3.5.3 1.5.1 2.2-.4 1-.9 7.9-3.1 11.2-3.6.6-.1 1.6-.5 2.3-.9.6-.5 1.2-.5 1.2-.1 0 .3.6.2 1.3-.4.6-.6 3-1.3 5.2-1.7 2.2-.4 4.6-1.3 5.4-1.9.8-.6 1.6-1 1.8-.9.1.2.4.3.6.2.1 0 1.2-.2 2.4-.5 1.2-.2 5.5-1.5 9.5-2.8 6.9-2.2 15-4.7 17.3-5.2 1.3-.2 11.6-3.4 13.5-4.2.8-.3 1.7-.6 2-.6 2.1-.5 10.8-2.9 12-3.4.8-.3 2.1-.4 2.8-.3.6.1 1.2-.3 1.2-1 0-.6.8-.9 2-.6 1.1.3 2 .1 2-.4s.8-.9 1.8-.9 2.2-.3 2.6-.7c.3-.4 1.4-.8 2.4-.9 2.9-.4 4.6-.9 5.8-1.6.6-.4 3-1 5.2-1.4 2.3-.4 4.2-1 4.2-1.4 0-.3.6-.7 1.3-.8 1-.1 7.3-1.6 11.2-2.7.6-.1 1.5-.3 2-.5.6-.1 1.5-.6 2.1-1.1.6-.5 2-.7 3.2-.4 1.2.2 2.2 0 2.2-.4 0-.8 8.7-3.6 10.3-3.3.4.1.7-.2.7-.8 0-.5 1.1-1 2.5-1s4.8-.9 7.6-2c2.9-1 5.6-1.7 6-1.4.4.2 1 0 1.4-.5.3-.6 2.6-1.3 5-1.7 2.5-.3 4.8-1 5-1.5.3-.4 1.2-.6 2-.2.8.3 1.5.1 1.5-.5 0-.5 2.8-1.5 6.3-2.2 3.4-.6 6.8-1.7 7.6-2.3.8-.7 1.6-1.1 1.8-.9.2.1 1.4 0 2.7-.4l2.3-.5-.1-208.2-.1-208.2-230-.4c-696.9-1.2-759.2-1.2-760.2.1zm112.3 52.2c.7.3 1.4 3.8 1.7 8.3.3 4.3.8 10.7 1.1 14.3.3 3.6.6 9.1.7 12.2.2 3.2.6 5.8.9 5.8.4 0 .7 2.1.8 4.7 0 2.7.5 8.6 1.2 13.3.6 4.7 1.1 11.5 1.2 15.2.1 3.8.4 6.8.8 6.8.3 0 .7 2.6.8 5.7.1 3.2.9 12.3 1.7 20.3.9 8 1.7 17.2 1.9 20.5.1 3.3.5 6.7.9 7.5.3.8.6 3.1.6 5 .2 8.3 1.4 21 2 21 .3 0 .7 2.4.8 5.3.4 12 1 20.3 1.6 21.7.7 2.1 1.9 15.6 1.8 20.2-.1 2.1.2 3.8.7 3.8.5 0 .8 3.4.7 7.6 0 4.1.2 7.7.6 8 .5.2.8 2.8.9 5.7 0 2.9.3 8.3.6 12.1.5 5.6.9 6.6 1.7 5 .6-1 1.3-3.9 1.4-6.4.2-2.5.5-7.4.8-11 .2-3.6.9-10.6 1.5-15.5.6-5 1.2-11.5 1.3-14.5.1-3 .6-6 1-6.6.4-.7.6-3.2.5-5.5 0-2.4.2-5.1.5-5.9.3-.8.8-4.9 1.1-9 .9-14.7 1.3-19.5 1.6-19.5.1 0 .4-2.5.6-5.5.2-3 .8-9.1 1.3-13.5s1-10.8 1-14.3c.1-3.4.4-6.2.9-6.2.4 0 .8-2.6.9-5.8.1-3.1.5-8.2.8-11.2.3-3 .8-8.9 1.1-13 .3-4.1.8-8.2 1.1-9 .3-.8.5-4.4.5-8 .1-3.6.3-7 .7-7.5.3-.6.6-3.3.7-6.1 0-2.7.4-5.5.8-6.2.3-.6.6-2.6.6-4.4-.2-5.7 1.3-21.8 2-21.8.3 0 .6-3 .5-6.8-.1-3.7.1-7.2.4-7.7.3-.6.7-2.1.7-3.5.1-1.4.2-3 .3-3.6.2-2.2 3.7-2.5 26.6-2.4 12.6.1 23.9.1 25.1.1l2.1-.1-.1 187.4c-.1 103.1-.4 187.8-.8 188.2-.4.4-1.3.2-2-.3-.7-.6-3.2-1.4-5.5-1.8-2.4-.4-4.5-1.1-4.8-1.5-.3-.5-1.2-.7-2-.3-.8.3-1.5 0-1.5-.7 0-.8-.9-1.1-2.5-.8-1.4.3-2.5.1-2.5-.3 0-.5-.9-.9-2-.9s-2-.4-2-.8c0-.7-.9-1-6.5-1.5l-2.5-.2V915.1c0-115.5-.2-138.2-1.3-137.2-.9.7-1.3 3-1.2 6.6.1 3-.2 5.5-.6 5.5-.6 0-2.5 23.2-2 25.7.1.7-.2 1.3-.6 1.3-.5 0-.9 2.4-1.1 5.2-.1 2.9-.4 7.8-.7 10.8-.3 3-.8 8.8-1.1 12.7-.4 4-.9 7.3-1.3 7.3-.3 0-.7 3-.8 6.8-.3 7.8-1 18.7-1.3 18.7-.4 0-.8 3.7-1.6 14.2-.4 5.7-1 10.3-1.4 10.3-.4 0-.6 2.6-.5 5.7.1 3.2-.1 6.2-.5 6.8-.4.5-.8 3.5-.9 6.5-.2 7.7-1.1 16.2-1.8 18-.3.8-.5 3.5-.5 5.9.1 2.4-.2 4.9-.6 5.5-.4.6-.8 4.1-.7 7.9 0 3.7-.3 6.7-.6 6.7-.7 0-2.1 14.4-1.9 19.7 0 1.8-.3 3.3-.8 3.3s-.8 2.6-.6 5.7c.1 3.2-.2 6.2-.6 6.8-.4.5-.8 3.5-.9 6.5 0 3-.6 9.3-1.2 14-.6 4.7-1.1 10.2-1.1 12.2 0 2.1-.3 3.8-.8 3.8-.4 0-.7 1.1-.5 2.5.2 2-.2 2.5-2.2 2.5-1.3 0-3.9-.7-5.8-1.4-1.9-.8-3.5-1.2-3.5-.9 0 .3-.6.1-1.3-.5-.7-.6-3.5-1.6-6.2-2.2-2.8-.6-5.7-1.3-6.5-1.7-.8-.3-1.7-.7-2-.8-4.6-1.2-5-1.7-5-5.8.1-2.3-.4-8-1-12.7-.6-4.7-1.1-10.9-1.1-13.8-.1-2.8-.4-5.2-.9-5.2-.4 0-.6-2.5-.6-5.6.1-3-.2-5.8-.6-6-.4-.2-.7-3.3-.7-6.7-.1-7.1-1-16.5-1.8-18.7-.3-.8-.7-4-.8-7-.1-3-.4-5.5-.5-5.5-.1 0-.4-2.3-.6-5-.2-2.8-.9-9.3-1.4-14.5-.5-5.2-1.2-11.3-1.4-13.5-.1-2.2-.4-4-.6-4-.1 0-.4-2.5-.6-5.5-.2-3-.8-8.9-1.4-13-.6-4.1-1.1-10-1.1-13s-.3-5.9-.7-6.5c-.3-.5-.7-3.3-.7-6 0-2.8-.3-5.5-.6-6-.4-.6-.7-3-.8-5.5-.1-2.5-.6-8.1-1.1-12.5-.6-4.4-1-10.4-1.1-13.2 0-2.9-.4-5.5-.8-5.7-.4-.3-.7-2.5-.6-4.8.2-2.4-.2-4.8-.7-5.4-.5-.7-.8-2.7-.8-4.5.1-4.8-1-18.1-1.7-19.9-.3-.8-.6-4.2-.7-7.5-.1-3.3-.5-6.6-.9-7.3-.5-.6-.6-1.6-.3-2 .2-.4.1-1.4-.5-2.2-.5-.9-.9 48.3-.9 126.4v127.8l-3.2-.7c-5.1-1-6.3-1.3-6.5-1.5-.2-.2-.6-.3-1-.4-.5-.1-1.3-.4-1.9-.8-.6-.4-3-1-5.3-1.4-2.3-.4-4.4-1-4.7-1.5-.2-.4-1.1-.6-1.9-.2-.8.3-1.5.1-1.5-.5s-1.7-1.3-3.7-1.7l-3.8-.6V852.5c0-104.7.4-163.8 1-164.4.6-.5 3.3-1.1 6-1.3 6.8-.4 45.7.1 47.1.6zm221.2 0c.8.8 2.4 18.2 2.3 25.3 0 3.5.3 6.3.7 6.3.4 0 .9 2.4 1 5.2.3 6.8 2.9 33.3 3.2 33.3.1 0 .3 3.1.5 7 .1 3.8.4 7 .5 7 .2 0 .4 2.5.6 5.5.6 10.4 1.6 19.5 2.1 21 .3.8.7 4.4.9 8 .6 10.6 1.3 18.9 2.4 28.5 1.4 12.5 2 19.2 2.3 25 .1 2.7.5 5.5 1 6.2.4.6.7 3.3.6 6-.1 2.6.1 6.1.5 7.8.3 1.6.9 6.6 1.1 11 .3 4.4.8 10 1 12.5.3 2.5.6 7 .8 10 .1 3 .6 6 1 6.6.4.7.6 3.2.5 5.5-.1 2.4.2 7.3.6 10.9.4 3.6.8 7.7.9 9.2.1 1.6.4 2.8.7 2.8.3 0 .6 2.6.8 5.7.6 15.3 1 20.9 1.6 22.3.5 1.6 1.4 13.8 1.6 22.4 0 2.8.4 5.5.9 6 .4.6.7 3.6.7 6.6-.1 3 .2 6.2.6 7 .7 1.3 2.4 21.4 3.1 35.5.1 2.7.5 5.5 1 6.2.4.6.7 3.5.7 6.5 0 2.9.5 9.3 1 14.3.6 4.9 1.2 11.9 1.4 15.5.2 3.6.4 6.5.6 6.5.2 0 .4 1.7.5 3.8.2 3.7.1 3.8-2.9 3.1-1.7-.4-3.4-1.1-3.7-1.7-.4-.5-1.4-.7-2.3-.4-.8.3-1.8.2-2.1-.3-.3-.4-2.3-1.1-4.5-1.5-2.2-.4-4.2-1.1-4.5-1.5-.3-.5-1.4-.7-2.5-.5-1.1.2-2-.1-2-.6s-.6-.9-1.2-.8c-.7.1-2.6-.3-4.1-.9-1.6-.7-3.3-1.2-3.8-1.2-3.9 0-5.6-8.3-6-28.3 0-3.1-.4-5.7-.8-5.7-.7 0-1.1-7.1-1.4-23.8-.1-4.5-.5-8.2-.9-8.2-.5 0-.8-3.1-.8-6.8 0-3.8-.3-7.2-.7-7.6-.5-.4-.8-1.3-.8-1.9 0-1.1-7.4-3.6-12-4.1-1.1-.1-2.4-.4-3-.8-.5-.3-3.7-1.1-7-1.8-7.3-1.4-9-1.8-9-2.1 0-.1-.9-.3-2-.5s-3.8-.7-6-1.3c-2.2-.5-4.1-.9-4.2-.7-.3.3-1 7.9-1.7 16.6-.2 3-.5 5.5-.6 5.5-.2 0-.5 2.9-.7 6.5-.2 3.6-.8 10.8-1.3 16-.6 5.2-1.1 11.5-1.2 14-.1 2.5-.5 4.9-.8 5.5-.4.5-.6 2.9-.5 5.3.1 2.8-.3 4.2-1.2 4.3-.7.1-1.9.2-2.5.3-.7.1-1.7-.1-2.3-.4-1.7-1.1-9.9-3.4-11.7-3.3-1 0-1.8-.3-1.8-.6 0-.9-10-3.6-11.7-3.3-.7.2-1.3-.2-1.3-.8 0-.6-.5-.8-1-.5-1.6 1-1.6-8.2 0-20.5.6-4.1 1.2-9.8 1.4-12.5.3-2.8.7-7 1-9.5.4-2.5.9-7.9 1.2-12 .3-4.1.8-10.3 1.1-13.8.3-3.4.8-6.2 1.2-6.2.4 0 .7-2.9.6-6.5-.1-3.6.2-6.5.5-6.5.4 0 .7-1.2.7-2.8.1-1.5.7-7.2 1.3-12.7.6-5.5 1.1-12.4 1-15.3 0-2.8.4-5.2.9-5.2.4 0 .7-2.6.6-5.8-.1-3.1.1-6.2.5-6.7.4-.6 1.1-5.3 1.5-10.5.3-5.2.9-10.9 1.1-12.5.5-3.5 1.2-11 1.9-18 .2-2.8.9-9.3 1.5-14.5.7-5.2 1.3-11.8 1.5-14.5.1-2.8.4-5.2.5-5.5.2-.3.4-3 .5-6 .2-3 .4-5.7.5-6 .6-1.1 3-25 3.3-31.3.1-3.7.5-6.7.9-6.7s.7-1.5.6-3.3c0-1.7.5-7.7 1.1-13.2.7-5.5 1.2-12.1 1.2-14.8 0-2.6.4-4.7.8-4.7.5 0 .8-3.2.7-7-.1-3.9.1-7 .5-7 .3 0 .9-3.7 1.3-8.3.4-4.5.9-10.7 1.2-13.7.2-3 .5-7.1.7-9 .1-1.9.5-4 .9-4.5.3-.6.5-4.3.4-8.3 0-3.9.2-7.2.5-7.2.6 0 1.4-6.9 2.1-17.5.1-1.6.6-3.4 1.1-4 1-1 49.4-1.1 50.5-.1zm113.4.9c.4.7.8 3.5.8 6.4 0 2.8.4 5.4.9 5.7.4.3.7 2 .6 3.8-.1 1.8.1 3.7.4 4.3.3.5.7 2.3.8 4 .7 7.6 1.6 14.1 2.2 15 .4.5.6 2.8.5 5-.1 2.2.2 4.4.6 5 .4.5.7 2.7.6 4.7-.1 2.1.1 3.8.4 3.8.7 0 2.2 10.6 2.1 14.9-.1 1.3.3 2.9.8 3.5.5.6.7 2.8.6 4.8-.2 2.1.1 3.8.7 3.8.5 0 .9 1.9.8 4.2 0 2.4.5 7.2 1 10.8.6 3.6 1.2 8.1 1.4 10 .2 1.9.4 3.5.6 3.5.1 0 .4 2.2.5 5 .2 2.7.4 5 .5 5 .2 0 2.3 15.2 3.4 24.5.2 1.9.5 3.5.6 3.5.3 0 .4 1.2 1.6 13.2.4 3.5.9 6.3 1.3 6.3s.5 1.8.3 4 0 4.6.5 5.3c.6.6.9 2.9.9 4.9-.1 2.1.2 3.8.6 3.8.4 0 .8 1.9.8 4.3s.3 4.6.6 5c.5.5 1.2 7.4 1.5 15.7 0 1.9.5 4 1 4.5.4.6.8 2 .8 3-.1 4.1 1.4 15.5 2 15.5.4 0 .6 2.2.4 5-.2 2.7 0 5 .5 5 .4 0 .9 1.7 1 3.7.1 2.1.6 6.9 1.1 10.8.6 3.8 1 7.6 1 8.2.1.7.4 1.3.9 1.3.4 0 .7-60.8.7-135.1 0-90.6.3-135.3 1-135.9 1-.9 9-1.2 24.2-1.1l8.2.1-.2 226.2-.2 226.2-4 1.4c-2.2.8-4.7 1.7-5.5 2-.8.2-3.3.6-5.5.7-2.2.1-4 .3-4 .5 0 .6-7 1-8.4.4-.9-.4-2.5-.8-3.6-.9-6.9-.6-7.1-.9-8.5-10.2-.8-4.9-1.2-10-1.1-11.5.1-1.6-.2-2.8-.7-2.8-.6 0-.9-2-.8-4.5.1-2.5-.1-4.5-.4-4.5-.4 0-1-4.1-1.3-9.1-.4-5-1-9.6-1.4-10.2-.4-.7-.8-3-.9-5.2 0-2.2-.3-4.7-.6-5.5-.4-.8-.7-2.9-.7-4.5-.1-1.7-.5-5.9-1.1-9.5-.5-3.6-1.1-8.3-1.3-10.5-.3-2.2-.5-4-.7-4-.1 0-.4-1.6-.6-3.5-.2-1.9-.8-6.4-1.4-10-.5-3.6-1-8.4-1-10.7.1-2.3-.3-4.4-.8-4.7-.6-.3-.8-2.6-.5-5.2.2-3.2 0-4.4-.7-3.9-.7.4-1 .1-.9-.6.4-2.4-1.3-17.9-2-17.9-.3 0-.4-2.2-.3-5 .2-2.7 0-5-.5-5-.6 0-.9-1.7-.8-3.7 0-2.1-.1-4.3-.4-4.8-.7-1.3-.6-.7-1.6-10.3-.4-4.5-1.1-8.2-1.4-8.2-.4 0-.6-2.4-.5-5.3 0-2.8-.3-5.7-.8-6.3-.4-.6-.8-2.2-.8-3.5 0-1.3-.5-5.6-1.1-9.4-.6-3.9-1-8.2-1-9.8.1-1.5-.2-2.7-.7-2.7-.5 0-.8-2.4-.7-5.3.1-2.8-.2-5.7-.7-6.3-.4-.6-1.1-5-1.4-9.7-.4-4.8-1-8.7-1.4-8.7-.4 0-.6-1.6-.5-3.5.2-1.9-.1-3.5-.5-3.5s-.8-2.4-.8-5.3c-.1-2.8-.6-7.7-1.2-10.7-.6-3-1.1-6.8-1.1-8.4 0-1.7-.3-3.5-.7-4-.3-.6-.7-2.5-.8-4.1-.1-1.7-.4-4.1-.7-5.5-.3-1.4-.8-6.1-1.2-10.5-.4-4.4-1-8.5-1.3-9-.4-.6-.8-2.6-.9-4.5-.8-9.5-1.1-11.7-2.1-14-.9-2.2-1.1-2.3-1.2-.5-.1 1.1-.2 73.6-.2 161.1l-.1 159.2-3.1-1c-1.7-.5-6-1.8-9.6-2.8-3.6-1-9.6-2.9-13.5-4.2l-7-2.3-.1-214.8-.1-214.7 2.6-.6c1.4-.3 2.9-.6 3.3-.7.4-.1 9.9-.1 21 .1 14.6.2 20.4.6 21 1.5zm207.5-1.3h8.2v58.8l-14.7.5c-8.1.4-17.1.7-19.9.8l-5.3.1v361.4l-5.2 1.3c-2.9.8-5.7 1.7-6.3 2.1-.5.4-1.8.6-2.7.5-1-.2-2 .1-2.4.6-.3.5-1.1.9-1.9.9-.8 0-2.6.5-4.2 1.2-3.1 1.2-4.8 1.7-7.8 2.3-1.1.2-3.4.7-5 1l-3.1.7.1-185.1c0-122.7-.3-185.1-1-185.2-.5-.1-2.1-.1-3.5 0s-7.2.4-13 .6c-5.8.2-12.8.5-15.6.6-2.7.1-5.5 0-6-.3-1.3-.8-1.2-60.5.1-61.7 1.7-1.6 3.5-1.6 52.9-1.4 26.5.1 51.8.3 56.3.3zm223.8.6c3.9.4 7.9.9 9 1.1 1.1.2 2.6.4 3.3.5.6.1 1.2.5 1.2 1 0 .4.8.8 1.8.8.9 0 3.2.9 5 2 1.7 1.1 3.2 1.7 3.2 1.4 0-.7 2.6 1.5 8.3 7.3 6.5 6.4 8.7 9 8.7 10.3 0 .5.8 1.4 1.8 1.9.9.6 1.3 1.1.8 1.1s-.4.6.2 1.2c.6.7 1.1 1.6 1.1 2.1 0 .4.8 2.4 1.7 4.5 1 2 1.6 4.1 1.5 4.6-.1.5.2 1.2.6 1.5 1.1.8 3.5 11.8 3.4 15.3-.1 1.6.2 2.8.7 2.8.5 0 .8 3.6.8 8-.1 4.4.3 8 .8 8 .4 0 .5 1 .1 2.2-1 3.3-1.3 39-.3 41 .4.9.4 1.9 0 2.2-.5.3-.8 3.7-.7 7.6.1 3.8-.2 7-.7 7-.4 0-.8 1.2-.8 2.7.1 4.5-2.2 15.3-3.2 15.3-.5 0-.6.9-.3 2 .4 1.1.2 2-.4 2-.6 0-1.1.8-1.1 1.8s-.7 2.7-1.5 3.8c-.8 1.2-1.1 2.4-.7 2.8.3.4.2 1-.3 1.4-.9.7-2.7 3.7-6.3 10.6-1.9 3.6-17.1 18.8-18.2 18.1-.5-.3-1-.2-1.2.2-.6 1.4-11.3 6.3-13.6 6.3-1.2 0-2.2.4-2.2.9 0 .4-1.1.7-2.5.6-1.4-.2-2.5 0-2.5.5 0 .4-1.5.8-3.2.8-1.8 0-6 .7-9.3 1.4l-6 1.3-.5 71.5-.5 71.5-2.2.3c-1.3.2-2.3.7-2.3 1.2s-.9.7-2 .5c-1.1-.2-2 0-2 .5 0 .4-1.9 1.1-4.2 1.5-2.4.4-4.7 1-5.3 1.4-.5.3-1.3.6-1.7.7-.5.1-1.1.3-1.5.4-.5.1-1.2.3-1.8.4-5.1 1.2-7.6 2-8.1 2.7-.3.5-1 .6-1.6.3-.6-.4-1.3-.1-1.7.5-.4.6-1.4.9-2.2.6-1.2-.5-1.4-24.9-1.4-180.5 0-118.6.3-180.2 1-180.9.6-.5 3.3-1.1 6-1.3 8.7-.5 45.7 0 53 .8zM860.8 692c.1 2.5.5 5.2.9 6 .3.8.7 4 .8 7 .1 3 .3 5.7.5 6 .3.5.8 5.5 1.6 17.7.3 4 .9 7.3 1.2 7.3.4 0 .8 2.8.9 6.3.5 10.5.9 16.1 1.6 17.7.3.8.8 4.6 1.1 8.5 1.4 15.8 1.6 18.2 1.9 22.7.1 2.7.5 4.8.9 4.8s.7 1.7.7 3.7c0 6.8 1.4 21.3 2 21.3.3 0 .7 3 .8 6.7.6 14.1.8 17.3 1.5 17.3.3 0 .9 5.2 1.3 11.5s1.1 11.5 1.4 11.5c.4 0 .7 2.9.6 6.5-.1 3.6.2 6.5.6 6.5.5 0 .9 1.7.8 3.7 0 2.1.4 8.1 1.1 13.3.6 5.2 1.2 11.3 1.3 13.5.1 2.2.5 4.4.8 5 .3.5.5 3.5.4 6.5-.1 3 .1 5.9.5 6.5.4.5 1 4.6 1.4 9 .3 4.4.9 9.1 1.2 10.5.3 1.4.8 5.2 1 8.5.8 9.8 1.4 15.5 2.4 24 .6 4.4 1 10.1 1 12.7 0 2.7.3 4.8.8 4.8s.8 2.7.7 6c-.1 3.3.2 6 .7 6 .5 0 .8 1.5.7 3.2-.2 4.3 1.1 17.9 1.8 19.8.4.8.7 3.5.7 6 .1 2.5.4 4.9.7 5.5.4.5.6 3.4.7 6.3 0 4.1-.4 5.5-1.9 6.3-1 .5-1.9.6-1.9.2 0-.4-.4-.3-.8.3s-2.9 1.7-5.7 2.3c-7.1 1.6-6.9 1.6-8.2 2.4-.7.5-1.7.5-2.3.2-.5-.3-1-.2-1 .3s-2 1.3-4.5 1.6c-2.5.4-4.5 1.2-4.5 1.8 0 .5-.6.8-1.4.5-.7-.3-1.9 0-2.5.6-1.3 1.3-2.4.4-2.6-2.1 0-.9-.4-2.2-.8-2.8-.3-.6-.9-7.2-1.3-14.8-.4-7.5-1-13.6-1.4-13.6-.4 0-.6-2.6-.5-5.7.2-3.2-.1-6.3-.5-6.8-.5-.6-.8-3.4-.6-6.3.1-2.9-.1-5.5-.6-5.8-.4-.3-.8-3.4-.8-6.9 0-3.5-.5-6.7-1-7-.6-.4-3.6.1-6.8 1.1-3.1.9-6.6 1.8-7.7 1.9-1.1.1-2 .4-2 .5 0 .1-1.3.4-3 .6-3.8.4-11.5 2.4-13.7 3.5-.9.4-2.6.6-3.7.4-1.2-.2-2.1 0-2.1.5s-1 1-2.2 1.2c-2.1.3-2.3.9-2.6 6.3-.1 3.3-.5 6.7-.8 7.5-.4.8-.6 4.3-.6 7.8 0 3.4-.4 6.2-.8 6.2s-.6 3.5-.5 7.7c.1 4.3-.1 8.2-.4 8.8-.3.5-1.2 7.7-1.8 16-.7 8.2-1.4 16.1-1.6 17.4-.3 2.3-1.3 2.8-11.2 5.4-.5.1-1.4.5-2 .8-.5.3-3.6 1.2-6.7 1.9-3.2.7-5.8 1.7-5.8 2.2 0 .5-1.1.6-2.5.4-1.4-.3-2.5 0-2.5.5s-.9.9-2.1.9c-2.1 0-2.1-.2-1.4-12.3.4-6.7 1-12.4 1.4-12.7.4-.3.8-3.2.9-6.5.3-7.8 1.1-18 2.3-28 .5-4.4 1-10.3 1.2-13 .2-2.8.5-5.2.7-5.5.1-.3.4-3.7.6-7.5.3-6.8 1.7-21.3 3-30.5.3-2.5.7-6.8.8-9.5.2-2.8.6-5.7 1-6.6.4-.8.5-4.5.4-8.2-.2-3.7.1-6.8.6-7 .4-.1.8-3 .7-6.4 0-3.4.3-6.4.7-6.7.4-.2.6-2.8.6-5.8-.1-2.9.1-5.8.4-6.3.4-.6.7-3.7.7-7s.4-6.5.7-7.1c.4-.5.7-3.2.7-6 0-2.7.5-8.5 1.1-12.9.6-4.4 1.1-10.6 1.2-13.8.1-3.1.5-5.7.9-5.7.3 0 .7-2.4.8-5.3.4-12.5 1.3-23.7 1.9-23.7.4 0 .8-2.6.9-5.8.5-11 1-16.7 1.6-18.2.7-1.8 1.6-13.1 1.8-21.3 0-3.1.4-5.7.7-5.7.4 0 .8-2.8.9-6.3.1-3.4.4-8.2.7-10.7.3-2.5 1-8.8 1.6-14 .6-5.2 1.1-12 1.2-15 0-3 .3-6 .6-6.5.4-.6.7-3.5.7-6.5s.3-6 .7-6.5c.3-.6.9-6.2 1.3-12.5s1.1-12 1.5-12.5c.3-.6.6-3.3.5-6-.1-2.8.2-5.6.8-6.3.7-.9 6.7-1.2 26.1-1l25.1.3.3 4.5z"/><path d="M412.2 765.7c-.1 6.6-1.6 25.1-2.7 34.3-.3 2.5-.7 7.9-.9 12-.2 4.1-.5 7.5-.6 7.5-.2 0-.4 2.5-.6 5.5-.2 3-.8 10.9-1.4 17.5-.6 6.6-1.2 14.1-1.4 16.7-.2 2.7-.4 4.9-.6 5-.1.2-.4 3.2-.7 6.8-.6 9.8-1.1 16.3-2.3 29.5-.6 6.6-1.3 14.7-1.5 18-.3 3.3-.8 8.7-1.1 12-1.4 17.4-1.5 21.8-.7 22.6.8.8 4.2 1.6 10.5 2.3 1 .1 2.1.5 2.4.9.4.4 2.2.7 4.1.7 1.8 0 3.3.4 3.3.9s.9.7 2 .4c1.1-.3 2.8-.2 3.7.2 4.2 1.9 10.6.7 7.6-1.4-.5-.3-1-3.8-1.1-7.6-.1-3.9-.6-11.3-1.2-16.5-.5-5.2-.9-12.8-.9-16.8 0-3.9-.4-7.2-.9-7.2s-.8-3.2-.6-7c.1-3.9-.2-7-.6-7-.5 0-.9-2.4-.9-5.3-.1-6.4-.8-17.3-1.7-24.7-.4-3-.6-8-.6-11s-.3-5.9-.6-6.5c-.4-.5-.7-3.7-.7-7s-.4-6.5-.8-7.1c-.4-.7-.6-2.3-.6-3.5.2-4.1-1.2-24.3-1.8-25.9-.4-.8-.8-4.7-1-8.5-.1-3.9-.5-10.2-.9-14-.3-3.9-.8-10.5-1.1-14.8-.3-5.1-.9-7.7-1.7-7.7-.8 0-1.2 2.2-1.4 6.7zM964 791v54h3.8c2.1 0 4.2-.3 4.5-.7.4-.3 2.6-.8 5-1 7.9-.5 8.7-.7 8.7-1.5 0-.4.8-.8 1.9-.8 2.5 0 6.8-3.5 7.7-6.3.3-1.2 1.1-2.8 1.7-3.6 2.8-3.4 3.7-14 3.8-43.1 0-28.2-1.1-40.8-3.7-42.3-.8-.4-1.4-1.4-1.4-2.2 0-.7-1.4-2.5-3.1-3.9-2.9-2.5-3.5-2.6-16-2.6H964v54zM833.2 758.1c-.1 1.4-.5 2.9-.9 3.3-.7.7-1.1 6.7-1.6 22.3-.1 4-.5 7.3-.9 7.3-.6 0-1.5 11.8-1.8 24-.1 3-.4 6.2-.8 7-.3.8-.7 4.2-.8 7.5-.2 3.3-.8 10.7-1.4 16.5-.6 5.8-1.1 13.1-1 16.2 0 3.1-.3 5.9-.8 6.2-.4.2-.7 3.3-.6 6.8.1 3.5-.2 6.7-.6 7.3-.5.5-.7 4.1-.6 7.8.1 3.8-.2 7.1-.6 7.3-.4.3-.8 3.6-.8 7.5 0 3.8-.3 6.9-.7 6.9-.5 0-.7 3.7-.6 8.2.1 4.6-.1 9-.4 9.8-.3.8-.7 3.7-.8 6.5-.1 2.7-.5 5.7-.9 6.5-1 2.3-.2 8.3 1.2 8.8.6.2 1.2-.1 1.2-.6 0-.6 1.4-.9 3-.7 1.7.2 3 0 3-.4s3.3-1.2 7.3-1.8c13.8-2 18.1-3.5 18.5-6.1.2-1.2 0-2.2-.5-2.2s-.8-3.4-.8-7.5c.1-4.1-.2-7.5-.6-7.5-.3 0-.7-3.3-.8-7.3-.3-11.8-1.2-22.7-1.9-22.7-.4 0-.6-2.4-.6-5.2.1-2.9-.2-5.8-.5-6.3-.4-.6-.7-4.5-.6-8.8 0-4.2-.2-7.7-.6-7.7-.6 0-2.1-17-1.9-23.2 0-2-.3-3.9-.7-4.1-.5-.3-.8-3.4-.7-6.9.1-3.4-.2-6.8-.7-7.3-.4-.6-.7-4.5-.6-8.8.1-4.2-.1-7.7-.5-7.7-.5 0-.8-2.9-.8-6.5s-.3-6.5-.8-6.5c-.4 0-.6-3.4-.5-7.5.2-4.1-.1-7.5-.5-7.5-.5 0-.8-2.9-.7-6.5.1-3.6-.2-6.5-.6-6.5-.5 0-1-2.8-1.2-6.3-.2-3.4-.4-5-.5-3.6z"/></svg>