<svg width="300" height="546.73" version="1.1" viewBox="0 0 79.375 144.66" xmlns="http://www.w3.org/2000/svg">
 <path d="m48.089 144.29c-0.0011-0.19968 0.15272-2.9653 0.34183-6.1459l0.34382-5.7828-0.48412-2.4336-0.48413-2.4336 0.59183-1.6227c0.35668-0.97792 1.4972-3.071 2.8704-5.2676 1.5684-2.5089 2.3618-3.9923 2.5457-4.7596l0.26708-1.1146-0.88501-1.3192c-1.1919-1.7767-3.9-3.8573-8.1134-6.2336-2.4735-1.395-3.7155-1.9669-4.875-2.2449-1.9205-0.46044-1.5082-0.24291-6.7664-3.57l-4.3807-2.7719-0.59449-2.0131c-0.49041-1.6607-0.77193-2.2263-1.608-3.231-0.68943-0.82842-1.4715-2.2229-2.4457-4.3609l-1.4322-3.1431 0.13151-2.4894c0.11148-2.1114 0.06-2.8516-0.33959-4.875l-0.47108-2.3856-2.1612-2.9733c-2.4298-3.3429-2.387-2.9123-0.41842-4.2027l0.98449-0.64535-0.42848-0.60175c-0.50728-0.71241-1.4314-1.4318-2.5789-2.0076-0.457-0.2293-1.2384-0.90022-1.7365-1.4909l-0.90562-1.074 0.14324-1.266c0.08092-0.71525 0.63389-2.5732 1.2711-4.2708 0.62031-1.6526 1.1039-3.0238 1.0747-3.0471-0.02926-0.02327-0.66836-0.24432-1.4202-0.49122-1.8954-0.62239-2.3625-1.1728-2.8369-3.3429l-0.38515-1.7618-3.7846-0.35188-0.53252-1.3302c-0.40287-1.0063-0.53253-1.7017-0.53253-2.8557v-1.5255l-0.78908-0.54683c-0.49294-0.3416-1.0673-0.54684-1.5305-0.54684-1.0886 0-1.2263-0.29006-0.88774-1.8697 0.39803-1.857 0.37479-2.2378-0.17657-2.893-0.26377-0.31347-0.65129-1.2138-0.86117-2.0007-0.27929-1.0472-0.70267-1.8785-1.5793-3.101-1.7701-2.4685-2.2965-3.7866-2.2225-5.565l0.060054-1.4418 0.72607-0.24296 0.72607-0.24296 0.21036-4.1135 3.2125-6.3219v-2.3519c0-1.9638 0.085584-2.6035 0.51862-3.8767 0.32217-0.94722 0.51862-1.9882 0.51862-2.7481v-1.2233l1.0891 0.11268c0.59901 0.061968 3.2362 0.16446 5.8604 0.22776 2.6242 0.0633 5.5782 0.17061 6.5645 0.23846l1.7932 0.12337 0.13318-0.60638c0.09204-0.41884 0.62334-1.0154 1.718-1.9289 1.4283-1.1919 1.6683-1.3182 2.43-1.2789 0.46487 0.024012 1.3649-0.13518 2-0.35376 1.0271-0.35348 1.3826-0.37429 3.2154-0.18826 1.8178 0.18451 2.3662 0.34572 4.6537 1.3682 3.0537 1.3649 7.1273 4.1015 9.0575 6.0848 0.70302 0.72235 1.886 2.2564 2.6289 3.409 1.1115 1.7245 1.5054 2.5878 2.2243 4.875 1.2279 3.907 3.3998 8.1378 6.6656 12.985 2.3712 3.5194 2.9087 4.1798 4.6245 5.6821 1.0678 0.93494 2.8281 2.2702 3.9116 2.9672 2.2543 1.4502 4.1439 3.173 5.0705 4.623 0.36164 0.56593 1.2319 2.8032 2.0031 5.1496 1.6051 4.8834 2.017 5.4781 4.6132 6.6613 1.144 0.52135 1.5852 0.84018 1.7576 1.2701 0.27928 0.69655 0.5208 3.7504 0.6636 8.3911l0.10644 3.4607-4.5906 5.8813-0.81336 3.0375c-1.0439 3.8984-1.0031 4.5137 0.52937 7.9826 0.9557 2.1633 1.1649 2.8779 1.468 5.0129 0.34553 2.4342 0.34423 2.5108-0.05748 3.4229-0.22603 0.51311-1.2543 2.131-2.2851 3.5954-1.8051 2.5643-1.9168 2.7903-3.0301 6.1307l-1.1559 3.4682-0.09648 7.2387 3.5515 6.3271c4.6611 8.3041 7.1738 13.484 7.0897 14.616l-0.06144 0.82608-1.7866-1.7571c-1.4976-1.4728-1.8073-1.8914-1.9147-2.5869-0.17221-1.1154-0.93196-1.6877-3.8892-2.9292-1.6529-0.69395-2.7701-1.3237-3.703-2.0875l-1.336-1.0937-0.9973-2.837c-0.57918-1.6476-1.7503-4.2783-2.7933-6.2749-1.575-3.0149-2.0381-3.7066-3.7637-5.6212-1.0822-1.2008-2.1413-2.213-2.3534-2.2495-0.47221-0.0811-0.47255-0.0673-0.02268 0.92754 0.19967 0.44157 0.80778 1.2117 1.3514 1.7114 1.5213 1.3985 5.5516 8.1463 6.1194 10.246l0.43715 1.6162-0.50304 1.6806c-0.56974 1.9035-1.3377 3.0721-2.0218 3.0769-0.5605 4e-3 -0.8606 0.19752-1.0337 0.66672-0.07272 0.19728-0.64495 1.0399-1.2715 1.8724-0.77154 1.025-1.1778 1.7797-1.2588 2.338-0.10716 0.73884-0.04236 0.90624 0.62395 1.6119 0.7747 0.82044 1.217 1.0496 2.8232 1.463l0.96168 0.24756-2.973 2.7041c-2.9278 2.663-3.0395 2.7395-7.3407 5.0263-2.4022 1.2772-4.4143 2.3221-4.4714 2.3221-0.057 0-0.10464-0.16332-0.10572-0.363z"/>
</svg>
